<?xml version="1.0" standalone="yes"?>
<svg xmlns="http://www.w3.org/2000/svg" width="466" height="498">
<path style="fill:#ffffff; stroke:none;" d="M0 0L0 65C7.83458 61.3681 14.4583 53.8699 21 48.2708L58 16.7292C63.5381 11.9891 69.3747 5.16345 76 2.01312C80.5162 -0.134369 87.1172 1 92 1L126 1C122.041 -0.661102 117.26 0 113 0L88 0L0 0z"/>
<path style="fill:#8bcfb5; stroke:none;" d="M126 0.424377C114.546 1.92834 102.545 1 91 1C86.1172 1 79.5162 -0.134369 75 2.01312C68.3748 5.16345 62.538 11.9891 57 16.7292L20 48.2708C14.3687 53.0907 3.51816 59.3254 0.603395 66.2855C-2.00241 72.5078 0.212151 82.505 0.830247 89C1.73677 98.5258 1 108.433 1 118L1 247L1 331L1 353C1.00018 355.868 0.337358 359.875 2.02778 362.39C4.26304 365.717 9.61363 367.789 13 369.719C21.0525 374.31 29.0361 379.056 37 383.799C67.1879 401.778 97.703 419.217 128 437.011C153.65 452.076 179.202 467.34 205 482.15C211.352 485.796 217.706 489.455 224 493.201C226.969 494.967 230.337 497.629 234 497.148C239.496 496.426 245.274 491.413 250 488.719C262.417 481.64 274.675 474.25 287 467.011C327.914 442.981 368.78 418.78 410 395.281C423.734 387.451 437.4 379.456 451 371.397C455.068 368.986 463.326 366.113 465.397 361.621C467.095 357.936 466 351.977 466 348C466 336.281 465 324.719 465 313L465 189L465 98L465 75C465 71.4226 465.56 67.2651 463.397 64.1698C459.501 58.5964 452.195 54.254 447 49.9197L410 19.0803C403.209 13.414 395.329 3.88324 387 0.741516C380.242 -1.80743 370.158 0 363 0L309 0L188 0C167.76 0 146.065 -2.21011 126 0.424377z"/>
<path style="fill:#ffffff; stroke:none;" d="M387 0C403.114 17.2401 423.863 31.4908 442 46.5864C448.532 52.0234 459.996 58.4355 463.972 66.0394C466.912 71.6606 465 81.7819 465 88L465 141L465 331C468.407 322.882 466 309.797 466 301L466 234L466 0L387 0M273 16.4244C257.371 18.4764 240.76 17 225 17L137 17L101 17C95.7563 17 88.95 15.8772 84 17.8572C78.778 19.9461 74.265 24.8638 70 28.4136L45 49.2469L27 64.2469C24.0883 66.6726 19.9916 69.1233 18.0278 72.4391C15.3171 77.0158 17 85.8309 17 91C17 106.397 17.2891 121.663 17.9606 137C19.022 161.238 17.961 185.736 18 210C18.0411 235.587 19 261.331 19 287C19 302.689 20 318.278 20 334C20 338.902 18.3496 347.552 21.6034 351.61C24.2326 354.889 29.4455 356.867 33 359L57 373.2C85.5279 390.281 114.163 407.296 143 423.85C164.804 436.368 186.429 449.284 208 462.2L225 472.199C227.733 473.821 230.657 475.893 234 475.498C239.538 474.845 245.3 469.771 250 467.011C261.309 460.368 272.747 453.938 284 447.2C321.773 424.583 359.922 402.524 398 380.424C410.354 373.254 422.728 366.108 435 358.799C438.862 356.499 446.42 353.91 448.397 349.621C449.767 346.647 449 342.193 449 339L449 316L449 234L449 127L449 95C449 90.41 450.013 84.3627 448.397 80.0008C446.814 75.7283 442.314 72.86 439 70L418 52L390 27.8696C385.764 24.2238 381.249 18.9808 376 16.858C372.63 15.4952 368.556 16 365 16L345 16L299 16C290.426 16 281.51 15.307 273 16.4244z"/>
<path style="fill:#000000; stroke:none;" d="M380 61C363.839 95.5655 328.22 102 294 102C249.85 102 206.628 87.0656 163 81.8449C139.705 79.0573 113.868 77.2161 92 87.4892C84.8781 90.8349 77.8992 95.6763 73.159 102.015C69.5991 106.775 66.8822 112.201 65.5031 118C63.7541 125.353 63.5302 132.723 65.7739 140C74.141 167.138 109.57 175.241 130.985 158.319C153.964 140.162 148.835 96.772 117 92C130.63 87.8584 145.869 91.9724 159 96.3333C162.865 97.617 169.65 98.572 171.972 102.278C173.498 104.713 172.999 108.265 173 111L173 130L173 181C173 188.422 171.467 197.784 173.318 204.985C174.582 209.905 180.555 213.572 184 217.001C191.178 224.145 197.798 231.456 203.302 240C207.398 246.359 210.775 253.045 213.716 260C216.172 265.807 218.079 271.892 219.626 278C226.226 304.057 232.539 343.319 204 359.095C200.057 361.275 195.428 362.739 191 363.535C184.39 364.725 177.579 363.831 171 363L171 387C171 390.118 170.203 394.734 172.603 397.182C175.487 400.123 181.166 400.946 185 401.87C197.605 404.907 211.465 405.108 224 401.572C228.218 400.382 237.256 398.587 238.682 393.786C240.727 386.901 239 377.171 239 370L239 318L239 147C242.076 149.204 246.869 151.539 248.397 155.184C250.432 160.043 249 167.798 249 173L249 214L249 405C257.526 403.48 266.115 397.926 273 392.844C275.921 390.688 279.291 388.319 280.972 384.996C282.481 382.014 282 378.234 282 375L282 355L282 281C299.082 286.462 318.038 288.702 335 281.535C357.841 271.885 372.422 236.412 365 213C354.503 217.866 346.846 227.763 336 232.688C324.237 238.028 311.586 238.821 299 236.715C293.254 235.753 287.812 233.507 282 233L282 169C289.965 173.242 299.083 176.154 308 177.561C317.127 179.001 325.896 179.258 335 177.54C371.785 170.6 382.854 132.461 385.09 100C385.697 91.1797 387.066 81.8485 385.79 73C385.193 68.8583 383.1 65.022 382 61L380 61z"/>
<path style="fill:#ffffff; stroke:none;" d="M0 86L0 498L232 498C226.714 493.406 220.003 490.375 214 486.799C201.396 479.293 188.688 471.94 176 464.576C137.583 442.279 99.1423 419.963 61 397.201C46.7383 388.69 32.3211 380.423 18 372.011C13.3519 369.281 3.84972 366.004 1.6034 360.79C-0.4618 355.996 1 348.153 1 343L1 301L1 150L1 106C1 99.846 2.39487 91.7073 0 86z"/>
<path style="fill:#8bcfb5; stroke:none;" d="M51 132C50.2293 149.95 46.3212 168.013 45.0895 186C41.4033 239.83 51.9049 301.95 101 332.575C113.74 340.522 127.586 346.212 142 350.29C160.533 355.534 178.08 355.391 197 355C194.75 350.886 190.599 348.662 187 345.739C181.196 341.025 175.422 336.074 170.015 330.91C155.262 316.823 141.862 298.885 134 280C150.732 296.732 167.702 313.722 188 326.189C195.961 331.079 203.81 335.873 213 338C213.143 320.669 214.475 304.312 211.565 287C205.326 249.882 180.816 219.088 148 201.309C135.062 194.299 120.752 191.207 107 186.308C95.1794 182.097 83.2665 176.182 73 168.964C65.7125 163.84 58.7392 157.515 55.4684 149C53.4278 143.688 55.918 135.475 51 132z"/>
<path style="fill:#ffffff; stroke:none;" d="M133 279L134 280L133 279M234 497C240.194 499.599 249.314 498 256 498L303 498L466 498L466 363C458.189 365.472 451.082 370.785 444 374.85C429.941 382.921 415.946 391.132 402 399.397C363.835 422.013 325.369 444.156 287 466.424C269.657 476.49 252.408 489.068 234 497z"/>
</svg>
