<svg xmlns="http://www.w3.org/2000/svg" xmlns:xlink="http://www.w3.org/1999/xlink" viewBox="0 0 45.39 62.19"><defs><style>.cls-1{fill:#36b392;}.cls-2{fill:#2c3541;}</style></defs><g id="Layer_2" data-name="Layer 2"><g id="图层_1" data-name="图层 1"><g id="Group_247" data-name="Group 247"><path id="Path_147" data-name="Path 147" class="cls-1" d="M25.61,0a28.29,28.29,0,0,1,5.14,2.17,15.07,15.07,0,0,1,7.17,12.06,1.25,1.25,0,0,0,.64,1.15,4,4,0,0,1,2,4.31,3.82,3.82,0,0,1-3.43,3.08,1.77,1.77,0,0,0-1.47,1.12c-1.4,2.7-4,3.59-6.73,4.11a27.54,27.54,0,0,1-2.88.3,2.76,2.76,0,0,0-2.13.83,1.77,1.77,0,0,1-2.5,0L21.22,29a1.93,1.93,0,0,1,.11-2.62,1.78,1.78,0,0,1,2.53-.11l.06.05a1.93,1.93,0,0,0,1.8.59,16.71,16.71,0,0,0,5.42-1,5.48,5.48,0,0,0,3.76-4.32,33.18,33.18,0,0,0,1.12-7A13.34,13.34,0,0,0,9.63,12.43a18.94,18.94,0,0,0,.85,8.9c.33,1.23-.14,1.45-1.13,1.54a4.12,4.12,0,0,1-4.29-2.63,3.93,3.93,0,0,1,1.59-4.75,1.44,1.44,0,0,0,.84-1.28A15.2,15.2,0,0,1,18.39.49c.4-.11.89-.07,1.17-.49Z"/><path id="Path_148" data-name="Path 148" class="cls-2" d="M19.35,52.62c.52-2.86,1-5.38,1.43-7.9.28-1.57.84-3.11.25-4.74-.16-.46,1-1.57,1.63-1.61s1.89,1.08,1.73,1.52c-.62,1.71,0,3.34.26,5,.39,2.34.83,4.67,1.25,7a3.87,3.87,0,0,0,.25.55,55.31,55.31,0,0,0,3.3-8.87c.71-2.35,1.37-4.71,1.93-7.08.23-.92.56-1,1.36-.71,1.88.7,3.86,1.1,5.71,1.89a7.62,7.62,0,0,1,4.56,5,61.42,61.42,0,0,1,2.14,13c.12,1.4.21,2.81.24,4.22s-.57,2-2,2H1.9c-1.32,0-1.95-.58-1.9-1.9A78.46,78.46,0,0,1,2.14,43.36a8.1,8.1,0,0,1,5.64-6c1.67-.55,3.39-1,5-1.61.88-.35,1,.06,1.16.7,1,3.89,2.06,7.75,3.4,11.53A37.66,37.66,0,0,0,19.35,52.62Z"/><path id="Path_149" data-name="Path 149" class="cls-2" d="M29.63,24.36a35.82,35.82,0,0,0,1.89-5.72,9.81,9.81,0,0,0,.21-2.76c-.15-1.83-.7-2.43-2.48-2.86a16,16,0,0,0-5.17.06,10.16,10.16,0,0,1-3.3-.11,8.92,8.92,0,0,0,3.35,1.62,8.16,8.16,0,0,1-7.92-2c-.58-.6-.86-.47-1.27.06a5.42,5.42,0,0,0-1.22,4.49,31.34,31.34,0,0,0,2.66,8.34,12.39,12.39,0,0,0,3.11,4.1,4.49,4.49,0,0,0,5.14.85A15.22,15.22,0,0,1,28,30.05a6.36,6.36,0,0,1-8.56,1.89,12.82,12.82,0,0,1-4.92-5.8,32.16,32.16,0,0,1-3.08-11.45c-.37-4.77,3-9,8.12-10.42,6.24-1.71,12.78,1.8,14.16,7.7.77,3.32-.11,6.53-1,9.73C32.29,23.3,31.21,23.89,29.63,24.36Z"/></g><image width="511" height="176" transform="translate(12.7 54.72) scale(0.04)" xlink:href="../TreeFortLogo_4C-horizontal-01.png"/></g></g></svg>