<svg xmlns="http://www.w3.org/2000/svg" width="4.743" height="5.011" viewBox="0 0 4.743 5.011">
  <g id="Group_237" data-name="Group 237" transform="translate(-856.595 6.179)">
    <path id="Path_131" data-name="Path 131" d="M860.772-2.011a.3.3,0,0,1-.111-.026L860.48-2.1a.02.02,0,0,0-.023.005,2.08,2.08,0,0,1-.4.295,2.2,2.2,0,0,1-.458.2.033.033,0,0,0-.027.03c-.015.08-.031.16-.048.24a.216.216,0,0,1-.181.163.342.342,0,0,1-.046,0h-.674a.218.218,0,0,1-.2-.115.332.332,0,0,1-.031-.105c-.013-.065-.026-.131-.038-.2a.02.02,0,0,0-.016-.017,2.248,2.248,0,0,1-.352-.138,2.125,2.125,0,0,1-.363-.227c-.052-.041-.1-.083-.151-.129a.02.02,0,0,0-.024,0l-.221.076a.218.218,0,0,1-.263-.1l-.343-.6a.22.22,0,0,1,.05-.279c.057-.05.113-.1.17-.151a.028.028,0,0,0,.01-.032,2.583,2.583,0,0,1-.051-.262,1.654,1.654,0,0,1-.013-.323,2.242,2.242,0,0,1,.066-.4.021.021,0,0,0-.008-.025c-.063-.056-.127-.11-.187-.168a.215.215,0,0,1-.035-.266q.166-.285.33-.571a.261.261,0,0,1,.105-.111.216.216,0,0,1,.178-.01l.215.074a.017.017,0,0,0,.021,0,2.061,2.061,0,0,1,.443-.32,2.226,2.226,0,0,1,.418-.173.027.027,0,0,0,.022-.025c.016-.084.033-.168.051-.251a.218.218,0,0,1,.183-.157c.022,0,.045,0,.067,0h.645a.219.219,0,0,1,.209.127.491.491,0,0,1,.031.125c.012.055.023.11.033.165a.019.019,0,0,0,.017.017,2.173,2.173,0,0,1,.351.138,2.12,2.12,0,0,1,.427.278c.028.023.054.048.08.072a.029.029,0,0,0,.035.007c.075-.027.15-.053.226-.077a.217.217,0,0,1,.249.1q.135.234.269.469c.027.047.055.094.081.142a.212.212,0,0,1-.045.26c-.06.056-.122.11-.183.165a.019.019,0,0,0-.008.023c.019.079.036.158.048.238a1.641,1.641,0,0,1,.017.362,2.266,2.266,0,0,1-.063.384.034.034,0,0,0,.013.04c.061.053.122.106.181.162a.21.21,0,0,1,.038.258c-.07.124-.142.247-.213.37-.047.08-.092.161-.141.241A.215.215,0,0,1,860.772-2.011Z" transform="translate(0)" fill="#8dcfb4"/>
    <path id="Path_132" data-name="Path 132" d="M905.249,45.157l-.009,0-.332.112c-.013,0-.018,0-.025-.009l-.253-.437c-.027-.046-.053-.092-.08-.138,0-.008,0-.011,0-.016l.27-.237a.015.015,0,0,0,.006-.017c-.02-.075-.041-.149-.055-.226q-.017-.09-.026-.181a1.835,1.835,0,0,1-.006-.27c0-.061.01-.123.019-.184a2.587,2.587,0,0,1,.068-.3.013.013,0,0,0,0-.016L904.559,43a.019.019,0,0,1,0-.029l.3-.517c.01-.018.022-.036.031-.054s.01-.01.019-.007l.334.113a.019.019,0,0,0,.024-.005,1.925,1.925,0,0,1,.473-.373,2,2,0,0,1,.52-.2.031.031,0,0,0,.027-.03c.022-.114.045-.228.068-.342,0-.006,0-.009.01-.009h.667c.016,0,.021.005.023.02.022.114.046.228.068.343a.017.017,0,0,0,.015.016,2.182,2.182,0,0,1,.362.12,1.939,1.939,0,0,1,.4.235,1.753,1.753,0,0,1,.241.22.024.024,0,0,0,.03.007l.327-.111a.017.017,0,0,1,.025.009l.331.571a.015.015,0,0,1,0,.022l-.256.225a.035.035,0,0,0-.014.043,2.218,2.218,0,0,1,.061.265c.008.051.015.1.019.154s.008.114.006.171a2.023,2.023,0,0,1-.023.264,2.54,2.54,0,0,1-.066.291.019.019,0,0,0,.006.023l.263.23a.02.02,0,0,1,0,.029l-.332.572c0,.007-.007.01-.016.007-.112-.038-.226-.073-.337-.115a.018.018,0,0,0-.024.006,1.9,1.9,0,0,1-.53.4,2.087,2.087,0,0,1-.469.173c-.01,0-.015.005-.018.018-.022.115-.045.229-.068.344,0,.012-.006.017-.021.017h-.66c-.013,0-.018,0-.021-.017-.022-.113-.045-.226-.067-.338,0-.011,0-.02-.019-.023a2.042,2.042,0,0,1-.491-.184,1.95,1.95,0,0,1-.365-.253,1.646,1.646,0,0,1-.143-.14S905.257,45.157,905.249,45.157Z" transform="translate(-47.733 -47.508)" fill="#fefefe"/>
    <path id="Path_133" data-name="Path 133" d="M1065.074,375.83a.339.339,0,0,1,.031-.152l.271-.883.082-.264a.108.108,0,0,1,.108-.082.111.111,0,0,1,.105.084l.185.6c.064.209.129.418.192.628a.259.259,0,0,1,0,.135.108.108,0,0,1-.213-.03.533.533,0,0,0-.036-.16c0-.016-.011-.032-.015-.048s-.005-.011-.014-.011h-.417c-.006,0-.009,0-.011.007-.016.054-.035.108-.05.162a.591.591,0,0,0,0,.063.109.109,0,0,1-.213.015A.3.3,0,0,1,1065.074,375.83Z" transform="translate(-207.523 -378.885)" fill="#8dcfb4"/>
    <path id="Path_134" data-name="Path 134" d="M1326.912,375.641V374.59a.109.109,0,0,1,.083-.107l.017,0h.439a.329.329,0,0,1,.322.247.271.271,0,0,1,.01.071q0,.17,0,.34a.328.328,0,0,1-.255.316.315.315,0,0,1-.068.007h-.314c-.013,0-.016,0-.016.016q0,.208,0,.417a.109.109,0,1,1-.219.008c0-.087,0-.174,0-.261Z" transform="translate(-468.165 -378.917)" fill="#8dcfb4"/>
    <path id="Path_135" data-name="Path 135" d="M1564.047,375.259q0,.261,0,.523c0,.016,0,.022.02.025a.1.1,0,0,1,.086.076.1.1,0,0,1-.031.11.1.1,0,0,1-.073.029h-.23a.109.109,0,0,1-.02-.216c.028-.006.028-.006.028-.035q0-.519,0-1.037c0-.012,0-.019-.017-.02a.108.108,0,0,1-.1-.1.11.11,0,0,1,.085-.114.137.137,0,0,1,.027,0h.215a.112.112,0,0,1,.111.079.109.109,0,0,1-.092.139c-.013,0-.014.006-.014.017Q1564.047,375,1564.047,375.259Z" transform="translate(-703.882 -378.933)" fill="#8dcfb4"/>
    <path id="Path_136" data-name="Path 136" d="M1139.251,480.566l.153.495h-.3Z" transform="translate(-281.211 -484.517)" fill="#fff"/>
    <path id="Path_137" data-name="Path 137" d="M1374.73,422.566c0-.085,0-.169,0-.254,0-.012,0-.017.016-.017h.31a.1.1,0,0,1,.107.1q0,.172,0,.345a.1.1,0,0,1-.1.1c-.063,0-.127,0-.19,0h-.13c-.013,0-.016,0-.016-.016C1374.73,422.737,1374.73,422.651,1374.73,422.566Z" transform="translate(-515.763 -426.512)" fill="#fff"/>
  </g>
</svg>
