<svg xmlns="http://www.w3.org/2000/svg" viewBox="0 0 2.59 3.43"><defs><style>.cls-1{fill:#8dcfb4;}.cls-2{fill:#fff;}.cls-3{fill:#fefefe;}</style></defs><g id="图层_2" data-name="图层 2"><g id="图层_1-2" data-name="图层 1"><g id="Group_221" data-name="Group 221"><path id="Path_79" data-name="Path 79" class="cls-1" d="M0,1.71V.11C0,0,0,0,.11,0H2a.16.16,0,0,1,.11.05c.16.16.31.32.47.47a.1.1,0,0,1,0,.1V3.33c0,.08,0,.1-.1.1H.11C0,3.43,0,3.41,0,3.32Z"/><path id="Path_80" data-name="Path 80" class="cls-2" d="M.14,1.72V.21S.16.14.21.14H1.86s.06,0,.06.06V.57c0,.07,0,.09.1.09h.37s0,0,0,0V3.24s0,0,0,0H.2c-.05,0-.06,0-.06-.06V1.72Z"/><path id="Path_81" data-name="Path 81" class="cls-3" d="M2.32.52H2.09a0,0,0,0,1,0,0V.26Z"/><path id="Path_82" data-name="Path 82" class="cls-1" d="M1.29,2.32H.46a0,0,0,0,1-.05,0,.07.07,0,0,1-.06-.07s0-.06.06-.07H2.16s.08,0,.08.07a.07.07,0,0,1-.07.07H1.29Z"/><path id="Path_83" data-name="Path 83" class="cls-1" d="M1.29,1.88H.41a.08.08,0,0,1-.07-.07s0-.07.06-.07a0,0,0,0,1,0,0H2.18a.07.07,0,0,1,.06.07.07.07,0,0,1-.06.07H1.29Z"/><path id="Path_84" data-name="Path 84" class="cls-1" d="M1.29,2.76H.37a.06.06,0,0,1,0-.07A.06.06,0,0,1,.4,2.62H2.15c.06,0,.09,0,.09.07s0,.07-.09.07Z"/><path id="Path_85" data-name="Path 85" class="cls-1" d="M1.29,1.3h.84a0,0,0,0,1,.05,0,.06.06,0,0,1,.06.06.08.08,0,0,1-.06.08H.4a.05.05,0,0,1-.05-.07A.05.05,0,0,1,.4,1.3a0,0,0,0,1,0,0Z"/></g></g></g></svg>