<svg version="1.2" baseProfile="tiny-ps" xmlns="http://www.w3.org/2000/svg" viewBox="0 0 1603 503" width="1603" height="503">
	<title>homePageBannerOther-svg</title>
	<defs>
		<linearGradient id="grd1" gradientUnits="userSpaceOnUse"  x1="0" y1="250.85" x2="1600.01" y2="250.85">
			<stop offset="0" stop-color="#e9f5ef"  />
			<stop offset="0.05" stop-color="#d2dfcc"  />
			<stop offset="0.08" stop-color="#ccdbc5"  />
			<stop offset="0.3" stop-color="#a7c295"  />
			<stop offset="0.51" stop-color="#8aaf70"  />
			<stop offset="0.7" stop-color="#75a155"  />
			<stop offset="0.87" stop-color="#689845"  />
			<stop offset="1" stop-color="#64953f"  />
			<stop offset="1" stop-color="#8ccfb5"  />
		</linearGradient>
		<linearGradient id="grd2" gradientUnits="userSpaceOnUse"  x1="217.664" y1="244.116" x2="263.855" y2="214.421">
			<stop offset="0.08" stop-color="#e9f5ef"  />
			<stop offset="0.2" stop-color="#e0efde"  />
			<stop offset="0.44" stop-color="#c9deb3"  />
			<stop offset="0.6" stop-color="#b8d292"  />
			<stop offset="0.99" stop-color="#9cc25e"  />
		</linearGradient>
		<linearGradient id="grd3" gradientUnits="userSpaceOnUse"  x1="56836.232" y1="31378.426" x2="63128.047" y2="31378.426">
			<stop offset="0.08" stop-color="#e9f5ef"  />
			<stop offset="0.2" stop-color="#e0efde"  />
			<stop offset="0.44" stop-color="#c9deb3"  />
			<stop offset="0.6" stop-color="#b8d292"  />
			<stop offset="0.99" stop-color="#9cc25e"  />
		</linearGradient>
		<linearGradient id="grd4" gradientUnits="userSpaceOnUse"  x1="42708.434" y1="14343.496" x2="46772.334" y2="14343.496">
			<stop offset="0.08" stop-color="#e9f5ef"  />
			<stop offset="0.2" stop-color="#e0efde"  />
			<stop offset="0.44" stop-color="#c9deb3"  />
			<stop offset="0.6" stop-color="#b8d292"  />
			<stop offset="0.99" stop-color="#9cc25e"  />
		</linearGradient>
		<linearGradient id="grd5" gradientUnits="userSpaceOnUse"  x1="32677.433" y1="15955.377" x2="35471.512" y2="15955.377">
			<stop offset="0.08" stop-color="#e9f5ef"  />
			<stop offset="0.2" stop-color="#e0efde"  />
			<stop offset="0.44" stop-color="#c9deb3"  />
			<stop offset="0.6" stop-color="#b8d292"  />
			<stop offset="0.99" stop-color="#9cc25e"  />
		</linearGradient>
		<linearGradient id="grd6" gradientUnits="userSpaceOnUse"  x1="26008.911" y1="10877.263" x2="28437.528" y2="10877.263">
			<stop offset="0.08" stop-color="#e9f5ef"  />
			<stop offset="0.2" stop-color="#e0efde"  />
			<stop offset="0.44" stop-color="#c9deb3"  />
			<stop offset="0.6" stop-color="#b8d292"  />
			<stop offset="0.99" stop-color="#9cc25e"  />
		</linearGradient>
	</defs>
	<style>
		tspan { white-space:pre }
		.shp0 { fill: url(#grd1) } 
		.shp1 { fill: #ffffff } 
		.shp2 { fill: #000101 } 
		.shp3 { fill: #8ccfb5 } 
		.shp4 { fill: #f2f9f5 } 
		.shp5 { fill: #f7af86 } 
		.shp6 { fill: #8dcfb5 } 
		.shp7 { fill: #ecf6f2 } 
		.shp8 { fill: #b98466 } 
		.shp9 { fill: #cccccc } 
		.shp10 { fill: #a4745a } 
		.shp11 { fill: #cd9170 } 
		.shp12 { fill: #bfbfbe } 
		.shp13 { fill: #8f664f } 
		.shp14 { fill: #b88365 } 
		.shp15 { fill: #9d7056 } 
		.shp16 { fill: #385349 } 
		.shp17 { fill: #669683 } 
		.shp18 { fill: #686b59 } 
		.shp19 { fill: #8ecfb5 } 
		.shp20 { fill: #93cfb6 } 
		.shp21 { fill: #eff8f4 } 
		.shp22 { fill: #78b09a } 
		.shp23 { fill: #acb4b0 } 
		.shp24 { fill: #b5beba } 
		.shp25 { fill: #5e8b79 } 
		.shp26 { fill: #c5c5c4 } 
		.shp27 { fill: #b0b9b5 } 
		.shp28 { fill: #496b5e } 
		.shp29 { fill: #578170 } 
		.shp30 { fill: #ebf6f2 } 
		.shp31 { fill: #939b98 } 
		.shp32 { fill: #bcbcbc } 
		.shp33 { fill: url(#grd2) } 
		.shp34 { fill: url(#grd3) } 
		.shp35 { fill: url(#grd4) } 
		.shp36 { fill: url(#grd5) } 
		.shp37 { fill: url(#grd6) } 
	</style>
	<g id="图层_2">
		<g id="Layer_2">
			<path id="Layer" class="shp0" d="M0 1.36L1600.01 1.36L1600.01 500.34L0 500.34L0 1.36Z" />
		</g>
		<g id="Layer_3">
			<g id="Layer" style="opacity: 0.549">
				<path id="Layer" class="shp1" d="M1600 47.17C1600 56.6 1599.84 62.06 1599.81 70.37C1599.64 116.66 1599.73 162.94 1599.73 209.22C1599.73 245.81 1599.89 282.4 1599.97 318.98C1599.97 328.18 1600.03 337.39 1599.97 346.59C1599.97 356.27 1599.16 358.27 1591.82 364.59C1584.96 370.54 1578.08 376.47 1571.19 382.38C1557.41 394.2 1543.58 405.96 1529.69 417.67C1501.92 441.07 1473.92 464.22 1445.69 487.12C1433.97 496.64 1420.69 505.93 1404.52 500.97C1398.09 498.97 1392.24 495.55 1386.45 492.14C1322.82 454.59 1259.13 417.03 1195.4 379.46C1187.4 374.73 1178.93 371.16 1175.04 362.03C1171.67 354.15 1172.3 345.03 1172.15 336.66L1171.15 281.31L1169.22 170.62C1169.22 149.62 1168.48 128.55 1168.11 107.53C1167.77 87.89 1167.59 67.86 1174.76 49.24C1181.76 31.24 1201.21 19.77 1218.76 13.41C1249.76 2.19 1283.16 1.49 1315.76 1.41C1389.21 1.14 1462.65 0.88 1536.08 0.64C1557.41 0.57 1578.69 0.35 1600 0.35" />
				<path id="Layer" class="shp2" d="M1279.45 59.31C1295.36 70.53 1307.85 80.61 1307.39 99.83C1306.86 122.08 1295.34 138.49 1273.79 144.83C1254.32 150.55 1232.79 142.72 1222.02 126.01C1210.75 108.53 1212.75 85.65 1227.83 69.82C1247.91 48.74 1274.19 46.33 1301.15 47.12C1339.5 48.23 1376.44 58.69 1414.07 64.56C1434.73 67.78 1455.49 71.56 1476.31 72.32C1516.01 73.84 1552.71 66.57 1575.82 27.07C1583.98 64.94 1582.32 101.15 1560.54 132.68C1535.54 168.94 1499.4 162.19 1462.83 150.08C1462.83 171.5 1463.1 191.22 1462.69 210.93C1462.54 218.64 1465.69 220.93 1472.9 222.93C1501.03 230.93 1525.06 223.93 1546.72 205.51C1549.33 203.29 1551.41 198.69 1555.6 200.32C1560.81 202.32 1559.3 207.71 1558.94 211.69C1554.77 258.69 1529 290.38 1475.5 279.04C1471.91 278.28 1468.27 277.78 1462.83 276.85L1462.83 367.79C1462.83 398.24 1458.83 403.56 1427.35 414.2C1424.1 408.57 1425.88 402.38 1425.87 396.56C1425.72 313.23 1425.67 229.89 1425.72 146.56C1425.72 138.43 1428.58 128.43 1414.38 126.56L1414.38 250.46C1414.38 297.38 1413.9 344.3 1414.71 391.2C1414.93 403.64 1409.94 408.2 1399.15 411.54C1388.15 414.94 1377.24 414.89 1366.21 414.54C1339.05 413.64 1330.06 400.54 1336.66 373.8C1338.44 366.6 1342.4 369.48 1346.15 369.4C1379.79 368.73 1396.25 352.97 1396.99 319.8C1398.07 271.8 1382.68 230.16 1346.44 197.8C1339.5 191.61 1337.55 185.8 1337.64 177.34C1337.98 145.86 1337.44 114.34 1338 82.9C1338.15 74.11 1335.53 69.06 1327.07 67.03C1312.42 63.5 1298.09 58 1279.45 59.31Z" />
				<path id="Layer" class="shp3" d="M1307 296.36C1320.52 321.2 1341.67 339.02 1363.67 356.8C1284.54 372.8 1205.67 313.14 1196.41 231.03C1194.13 210.83 1191.52 190.54 1193.26 170.18C1194.96 150.18 1197.72 130.34 1201.2 110.18C1203.1 133 1217.83 145.37 1235.79 155.12C1239.44 157.11 1243.15 159 1246.9 160.79C1250.66 162.57 1254.47 164.25 1258.31 165.83C1262.16 167.41 1266.05 168.88 1269.98 170.24C1273.91 171.6 1277.88 172.86 1281.88 174C1298.25 178.63 1313.66 186.14 1327.39 196.17C1341.13 206.21 1352.97 218.6 1362.37 232.78C1371.76 246.96 1378.56 262.69 1382.45 279.25C1386.33 295.81 1387.24 312.93 1385.13 329.81C1383.54 342.9 1376.74 337.63 1371.4 335.07C1348.91 324.31 1330.98 307.07 1311.4 292.07C1307 290.47 1304.7 291.05 1307 296.36Z" />
				<path id="Layer" class="shp4" d="M1307 296.36C1303.13 293.36 1301.08 289.25 1299.89 282.83C1306.29 283.65 1308.63 288.18 1311.45 292.02C1309.97 293.47 1308.49 294.92 1307 296.36Z" />
			</g>
		</g>
		<g id="Layer_6">
			<g id="Layer" style="opacity: 0.702">
				<path id="Layer" class="shp5" d="M137.92 500.25C130.21 500.38 122.45 500.25 114.72 500.2C113.92 500.23 113.11 500.24 112.31 500.21C111.5 500.19 110.7 500.13 109.9 500.05C109.1 499.97 108.3 499.85 107.51 499.71C106.72 499.57 105.93 499.4 105.15 499.2C103.67 498.75 102.48 498.3 101.67 496.94C101.48 496.59 101.31 496.23 101.16 495.86C101.02 495.49 100.89 495.11 100.79 494.72C100.68 494.34 100.6 493.95 100.55 493.55C100.49 493.16 100.45 492.76 100.44 492.36C99.91 484.49 98.56 475.23 92.07 469.89C89.66 467.89 87.33 465.82 84.98 463.78C84.18 463.04 83.42 462.25 82.72 461.4C82.03 460.56 81.39 459.67 80.81 458.74C80.23 457.82 79.72 456.85 79.27 455.85C78.82 454.86 78.44 453.83 78.13 452.78C77.78 451.66 77.45 450.54 77.14 449.41C76.83 448.28 76.54 447.15 76.26 446.01C75.99 444.87 75.73 443.73 75.49 442.59C75.25 441.44 75.02 440.29 74.82 439.14C74.2 436.14 73.73 433.07 73.27 430.02C73.24 429.93 73.22 429.83 73.2 429.73C73.19 429.63 73.19 429.53 73.19 429.43C73.2 429.33 73.22 429.23 73.24 429.14C73.27 429.04 73.31 428.95 73.35 428.86C73.37 428.84 73.39 428.81 73.41 428.79C73.43 428.77 73.46 428.76 73.48 428.74C73.51 428.72 73.54 428.71 73.56 428.7C73.59 428.69 73.62 428.68 73.65 428.67C73.7 428.67 73.74 428.68 73.78 428.69C73.83 428.7 73.87 428.72 73.91 428.73C73.95 428.75 73.99 428.78 74.03 428.8C74.06 428.83 74.1 428.86 74.13 428.89C75.04 430.89 75.4 433.04 76.13 435.09C76.52 436.25 76.97 437.39 77.48 438.5C78 439.62 78.57 440.7 79.21 441.75C79.84 442.79 80.54 443.8 81.29 444.77C82.04 445.74 82.84 446.67 83.69 447.55C84.36 448.22 85.07 448.84 85.82 449.41C86.57 449.98 87.36 450.51 88.19 450.97C89.01 451.44 89.86 451.85 90.74 452.2C91.61 452.55 92.51 452.84 93.43 453.07C93.57 453.13 93.72 453.18 93.86 453.23C94.01 453.28 94.16 453.32 94.3 453.36C94.45 453.4 94.6 453.43 94.75 453.46C94.91 453.49 95.06 453.51 95.21 453.53C98.53 453.77 97.84 453.84 98.71 451.08C99.14 449.73 99.49 448.36 99.95 447.02C99.97 446.82 99.99 446.62 100.02 446.43C100.05 446.23 100.09 446.03 100.14 445.84C100.19 445.65 100.25 445.46 100.31 445.27C100.38 445.08 100.45 444.89 100.53 444.71C101.23 442.49 101.8 440.24 102.53 438.04C103.16 435.49 103.97 433.04 104.65 430.47C104.69 430.31 104.74 430.16 104.79 430.01C104.85 429.85 104.9 429.7 104.96 429.55C105.02 429.4 105.09 429.26 105.16 429.11C105.23 428.97 105.3 428.82 105.38 428.68C106.51 427.85 106.21 426.51 106.57 425.4C106.72 424.41 106.89 423.42 107.07 422.44C107.25 421.45 107.44 420.47 107.65 419.49C107.85 418.51 108.07 417.54 108.3 416.56C108.54 415.59 108.78 414.62 109.04 413.65C109.12 413.2 109.21 412.74 109.31 412.29C109.4 411.84 109.5 411.39 109.61 410.95C109.72 410.5 109.83 410.05 109.96 409.61C110.08 409.16 110.21 408.72 110.34 408.28C111.17 405.5 110.45 402.93 109.34 400.4C109.23 400.14 109.12 399.89 108.99 399.64C108.87 399.38 108.74 399.14 108.61 398.89C108.47 398.64 108.33 398.4 108.19 398.16C108.04 397.93 107.89 397.69 107.73 397.46C106.66 395.86 105.37 394.46 104.2 392.9C103.69 392.36 103.2 391.81 102.74 391.24C102.27 390.67 101.82 390.08 101.38 389.48C100.95 388.88 100.54 388.27 100.15 387.64C99.77 387.01 99.4 386.37 99.05 385.72C98.7 385.02 98.3 384.34 98.05 383.61C97.56 382.76 97.53 381.73 97.05 380.88C96.98 380.7 96.92 380.53 96.86 380.35C96.8 380.17 96.75 379.99 96.7 379.81C96.65 379.63 96.6 379.45 96.56 379.26C96.52 379.08 96.49 378.9 96.46 378.71C96.31 378.25 96.17 377.78 96.07 377.3C95.96 376.83 95.88 376.34 95.83 375.86C95.77 375.38 95.74 374.89 95.74 374.4C95.73 373.91 95.75 373.43 95.8 372.94C95.85 372.48 96 372.04 96.22 371.63C96.45 371.23 96.75 370.87 97.11 370.59C97.47 370.3 97.88 370.08 98.32 369.95C98.77 369.82 99.23 369.77 99.69 369.82C99.89 369.8 100.09 369.78 100.29 369.78C100.49 369.78 100.69 369.79 100.89 369.81C101.09 369.82 101.29 369.85 101.49 369.89C101.68 369.93 101.88 369.98 102.07 370.04C102.34 370.07 102.61 370.11 102.88 370.17C103.15 370.22 103.41 370.29 103.67 370.36C103.93 370.44 104.19 370.53 104.44 370.63C104.7 370.73 104.95 370.85 105.19 370.97C105.39 371.01 105.58 371.06 105.78 371.12C105.97 371.18 106.16 371.25 106.35 371.33C106.53 371.41 106.72 371.49 106.9 371.59C107.08 371.68 107.25 371.78 107.42 371.89C107.58 371.94 107.74 371.99 107.9 372.05C108.06 372.11 108.21 372.18 108.37 372.25C108.52 372.32 108.67 372.39 108.82 372.47C108.97 372.55 109.12 372.63 109.26 372.72C109.43 372.8 109.61 372.89 109.78 372.98C109.95 373.06 110.12 373.16 110.28 373.25C110.45 373.35 110.61 373.44 110.78 373.55C110.94 373.65 111.1 373.75 111.26 373.86C111.91 374.23 112.55 374.62 113.18 375.03C113.81 375.43 114.42 375.86 115.02 376.31C115.62 376.75 116.21 377.21 116.79 377.7C117.36 378.18 117.92 378.67 118.46 379.19C118.84 379.53 119.22 379.87 119.59 380.23C119.96 380.58 120.32 380.93 120.68 381.3C121.04 381.66 121.39 382.03 121.74 382.4C122.08 382.78 122.43 383.16 122.76 383.54C123.26 384.08 123.76 384.64 124.23 385.2C124.71 385.77 125.17 386.35 125.62 386.94C126.06 387.53 126.49 388.13 126.91 388.74C127.33 389.35 127.73 389.98 128.11 390.61C128.21 390.8 128.43 390.9 128.57 391.06C129.68 392.74 130.71 394.47 131.78 396.18C131.83 396.18 131.87 396.18 131.92 396.18C131.96 396.17 132.01 396.17 132.05 396.16C132.1 396.15 132.14 396.14 132.19 396.13C132.23 396.12 132.28 396.11 132.32 396.09C132.49 396.04 132.66 395.95 132.8 395.85C132.95 395.74 133.08 395.61 133.19 395.47C133.29 395.32 133.37 395.16 133.43 394.98C133.48 394.81 133.51 394.63 133.51 394.45C134.1 390 134.72 385.56 135.06 381.09C135.08 380.96 135.1 380.84 135.12 380.71C135.14 380.59 135.16 380.46 135.19 380.34C135.22 380.21 135.25 380.09 135.28 379.97C135.31 379.84 135.34 379.72 135.38 379.6C135.51 377.79 135.79 376 135.92 374.19C135.92 374.07 135.92 373.96 135.94 373.84C135.96 373.72 135.99 373.61 136.04 373.5C136.08 373.39 136.13 373.29 136.19 373.19C136.26 373.09 136.33 372.99 136.41 372.91C137.14 372.62 137.41 373.2 137.63 373.65C138.43 375.12 139.07 376.65 139.77 378.18C140.77 380.28 141.77 382.38 142.67 384.5C142.78 384.74 142.88 384.98 142.97 385.22C143.06 385.47 143.14 385.71 143.21 385.97C143.28 386.22 143.34 386.47 143.39 386.73C143.43 386.98 143.47 387.24 143.5 387.5C143.67 389.5 143.95 391.45 143.97 393.44C143.97 393.47 143.97 393.5 143.96 393.53C143.96 393.56 143.96 393.59 143.96 393.61C143.96 393.64 143.96 393.67 143.96 393.7C143.97 393.73 143.97 393.76 143.97 393.79C143.97 393.83 143.96 393.88 143.96 393.92C143.96 393.97 143.96 394.01 143.96 394.06C143.96 394.11 143.96 394.15 143.96 394.2C143.96 394.24 143.97 394.29 143.97 394.33C144 394.44 144.02 394.54 144.04 394.65C144.07 394.75 144.09 394.86 144.11 394.97C144.13 395.07 144.14 395.18 144.16 395.29C144.17 395.39 144.19 395.5 144.2 395.61C144.57 398.61 144.74 401.69 144.97 404.73C145.31 409.36 145.61 414 145.97 418.63C146.16 421.16 146.31 423.7 146.48 426.24C146.76 430.33 146.99 434.42 147.28 438.51C147.47 441.26 147.62 444.02 147.79 446.78C148.05 451.01 148.3 455.25 148.6 459.49C148.8 462.39 149.07 465.29 149.08 468.19C149.08 480.63 149.08 484.46 149.08 496.9C149.08 499.96 145.69 499.97 143.44 500.05C141.62 500.17 139.77 500.22 137.92 500.25Z" />
				<path id="Layer" class="shp6" d="M143.82 395.38C143.78 395.29 143.75 395.2 143.72 395.1C143.69 395.01 143.67 394.91 143.66 394.82C143.64 394.72 143.63 394.62 143.63 394.52C143.63 394.43 143.64 394.33 143.65 394.23C143.79 394.16 143.93 394.1 144.08 394.06C144.23 394.01 144.38 393.98 144.53 393.96C144.68 393.94 144.84 393.93 144.99 393.94C145.15 393.94 145.3 393.96 145.45 393.99L229.22 393.99C229.7 394.02 230.18 394.03 230.66 394.03C231.14 394.03 231.62 394.02 232.1 393.99C232.59 393.96 233.06 393.92 233.54 393.86C234.02 393.8 234.5 393.73 234.97 393.65C236.15 393.68 237.34 393.56 238.49 393.3C239.65 393.04 240.76 392.64 241.82 392.11C242.88 391.58 243.87 390.92 244.76 390.14C245.66 389.37 246.46 388.49 247.14 387.52C247.53 387 247.89 386.45 248.2 385.87C248.52 385.3 248.79 384.71 249.03 384.09C249.26 383.48 249.45 382.86 249.59 382.22C249.74 381.58 249.84 380.93 249.89 380.28C249.93 379.85 249.96 379.43 249.99 379C250.01 378.58 250.03 378.15 250.05 377.72C250.06 377.3 250.07 376.87 250.08 376.44C250.08 376.01 250.08 375.59 250.07 375.16C250.07 331.65 250.07 288.14 250.07 244.63C250.08 244.43 250.09 244.23 250.09 244.03C250.09 243.83 250.09 243.63 250.08 243.43C250.07 243.23 250.06 243.03 250.04 242.83C250.03 242.63 250.01 242.43 249.98 242.23C249.91 241.99 249.87 241.73 249.58 241.62C249.21 241.56 248.84 241.51 248.47 241.47C248.1 241.43 247.73 241.4 247.36 241.38C246.98 241.36 246.61 241.34 246.24 241.34C245.87 241.34 245.49 241.34 245.12 241.36L19.85 241.36C19.46 241.34 19.07 241.33 18.68 241.33C18.29 241.33 17.9 241.34 17.51 241.36C17.12 241.38 16.73 241.41 16.34 241.45C15.95 241.48 15.57 241.53 15.18 241.59C14.88 241.59 14.76 241.83 14.69 242.09C14.68 242.12 14.67 242.15 14.66 242.18C14.65 242.22 14.65 242.25 14.64 242.28C14.63 242.31 14.62 242.34 14.62 242.37C14.61 242.41 14.61 242.44 14.6 242.47C14.6 243.02 14.6 243.57 14.6 244.11L14.6 378.11C14.59 378.22 14.59 378.33 14.59 378.44C14.58 378.55 14.59 378.66 14.6 378.76C14.61 378.87 14.62 378.98 14.64 379.09C14.66 379.2 14.68 379.3 14.71 379.41C14.74 379.49 14.76 379.56 14.78 379.64C14.79 379.72 14.81 379.8 14.81 379.88C14.82 379.96 14.82 380.04 14.81 380.12C14.81 380.2 14.8 380.28 14.78 380.36C14.83 381.11 14.94 381.85 15.11 382.58C15.28 383.3 15.51 384.02 15.8 384.71C16.09 385.4 16.44 386.06 16.84 386.69C17.24 387.33 17.69 387.92 18.19 388.48C18.67 389.04 19.19 389.57 19.75 390.06C20.3 390.54 20.89 390.99 21.51 391.39C22.13 391.8 22.78 392.15 23.45 392.46C24.12 392.78 24.81 393.04 25.52 393.25C25.78 393.32 26.04 393.38 26.31 393.43C26.57 393.48 26.84 393.53 27.11 393.56C27.37 393.6 27.64 393.63 27.91 393.65C28.18 393.67 28.45 393.68 28.72 393.69C28.8 393.68 28.89 393.67 28.97 393.67C29.05 393.66 29.14 393.66 29.22 393.66C29.3 393.66 29.39 393.66 29.47 393.67C29.55 393.67 29.64 393.68 29.72 393.69C30.06 393.76 30.4 393.81 30.74 393.86C31.08 393.91 31.42 393.95 31.77 393.98C32.11 394 32.45 394.02 32.8 394.03C33.14 394.04 33.49 394.03 33.83 394.02C40 394.02 46.17 393.97 52.34 394.02C53.12 394.26 53.45 394.72 53.08 395.53C52.99 395.61 52.89 395.67 52.78 395.72C52.68 395.78 52.57 395.82 52.45 395.85C52.34 395.88 52.22 395.9 52.1 395.9C51.99 395.91 51.87 395.9 51.75 395.88C44.45 395.88 37.15 395.96 29.84 395.88C29.36 395.9 28.88 395.89 28.4 395.85C27.92 395.82 27.44 395.76 26.96 395.67C26.49 395.59 26.02 395.48 25.56 395.35C25.09 395.22 24.64 395.06 24.19 394.88C23.5 394.66 22.82 394.4 22.16 394.09C21.5 393.78 20.87 393.42 20.26 393.02C19.65 392.62 19.08 392.18 18.53 391.7C17.98 391.22 17.47 390.7 17 390.15C16.79 389.91 16.59 389.67 16.39 389.42C16.19 389.17 16 388.92 15.82 388.66C15.63 388.41 15.45 388.14 15.28 387.88C15.11 387.61 14.94 387.34 14.78 387.07C14.52 386.63 14.29 386.16 14.08 385.69C13.88 385.21 13.71 384.73 13.58 384.23C13.44 383.73 13.34 383.22 13.27 382.71C13.2 382.2 13.17 381.69 13.17 381.17C13.17 380.82 13.28 380.45 13.07 380.11L13.07 240.8C13.09 240.25 13.14 239.7 13.22 239.16C13.3 238.61 13.42 238.07 13.56 237.54C13.71 237.01 13.89 236.49 14.1 235.98C14.3 235.47 14.54 234.97 14.81 234.49C18.12 229.29 22.6 226.07 28.96 225.9C29.14 225.93 29.32 225.96 29.5 225.98C29.68 226 29.86 226.02 30.04 226.03C30.22 226.05 30.4 226.06 30.59 226.06C30.77 226.07 30.95 226.07 31.13 226.07C41.13 226.07 51.13 226.34 61.13 226.01C81.42 225.33 101.7 225.83 121.99 225.71C142.28 225.59 162.59 225.37 182.88 225.78C199.88 226.12 216.88 225.87 233.88 226.06C234.03 226.07 234.19 226.08 234.34 226.08C234.5 226.08 234.65 226.08 234.81 226.07C234.96 226.05 235.11 226.04 235.27 226.01C235.42 225.99 235.57 225.96 235.72 225.92C236.78 225.92 237.83 226.02 238.87 226.24C239.9 226.45 240.91 226.77 241.88 227.19C242.85 227.61 243.77 228.14 244.63 228.75C245.49 229.36 246.28 230.06 247 230.84C247.04 230.86 247.07 230.88 247.11 230.9C247.14 230.93 247.18 230.95 247.21 230.98C247.24 231.01 247.27 231.04 247.3 231.07C247.33 231.1 247.35 231.13 247.38 231.16C247.65 231.43 247.92 231.71 248.17 231.99C248.42 232.28 248.66 232.58 248.89 232.89C249.12 233.2 249.33 233.52 249.53 233.84C249.74 234.17 249.92 234.5 250.1 234.84C250.16 234.93 250.21 235.02 250.26 235.12C250.31 235.21 250.35 235.3 250.39 235.4C250.43 235.5 250.47 235.6 250.51 235.7C250.54 235.8 250.57 235.9 250.6 236C250.83 236.43 251.03 236.88 251.2 237.34C251.37 237.8 251.5 238.27 251.6 238.75C251.7 239.23 251.77 239.72 251.8 240.21C251.83 240.7 251.82 241.19 251.78 241.68C251.78 287.52 251.78 333.36 251.78 379.19C251.78 382.52 251.23 385.7 249.16 388.44C246.55 391.9 243.38 394.54 238.96 395.33C238.57 395.43 238.18 395.51 237.79 395.58C237.4 395.65 237 395.71 236.6 395.76C236.21 395.8 235.81 395.84 235.41 395.86C235.01 395.88 234.61 395.89 234.21 395.88C204.76 395.88 175.31 395.88 145.86 395.88C145.14 395.88 144.37 396.06 143.82 395.38Z" />
				<path id="Layer" class="shp1" d="M108.05 397.13C110.51 400.61 111.95 404.33 110.76 408.68C110.29 410.36 109.91 412.06 109.48 413.75C109.32 413.86 109.16 413.95 108.98 414.03C108.81 414.11 108.63 414.17 108.44 414.21C108.26 414.25 108.07 414.27 107.88 414.27C107.69 414.28 107.5 414.26 107.31 414.23L80.13 414.23C77.33 414.23 74.53 414.23 71.73 414.23C70.26 414.24 68.81 413.99 67.43 413.49C66.05 412.99 64.77 412.25 63.64 411.3C62.52 410.36 61.58 409.22 60.85 407.95C60.13 406.67 59.63 405.28 59.39 403.83C59.37 403.68 59.35 403.52 59.33 403.37C59.32 403.22 59.31 403.06 59.3 402.91C59.29 402.75 59.29 402.6 59.28 402.44C59.28 402.29 59.28 402.13 59.29 401.98C59.29 365.31 59.29 328.65 59.29 291.98C59.32 290.4 59.66 288.84 60.28 287.38C60.9 285.92 61.79 284.6 62.91 283.48C64.03 282.36 65.36 281.47 66.82 280.85C68.27 280.24 69.84 279.91 71.42 279.88C86.44 279.88 101.46 279.88 116.49 279.88C117.97 279.88 119.43 280.15 120.81 280.68C122.19 281.2 123.47 281.97 124.58 282.95C125.68 283.92 126.61 285.09 127.3 286.39C128 287.7 128.45 289.12 128.64 290.58C128.67 290.81 128.7 291.05 128.72 291.28C128.75 291.52 128.77 291.76 128.78 291.99C128.8 292.23 128.81 292.46 128.82 292.7C128.83 292.94 128.83 293.17 128.83 293.41C128.83 325.25 128.83 357.09 128.83 388.94C128.83 389.75 129.2 390.71 128.29 391.35C126.42 388.79 124.56 386.22 122.48 383.82C122.41 383.7 122.36 383.58 122.32 383.45C122.28 383.32 122.27 383.18 122.27 383.04C122.27 382.91 122.28 382.77 122.32 382.64C122.36 382.51 122.41 382.39 122.48 382.27C122.78 381.63 123.06 380.98 123.32 380.32C123.57 379.66 123.8 378.99 124.01 378.31C124.21 377.63 124.4 376.95 124.55 376.26C124.71 375.57 124.84 374.87 124.94 374.17C125.15 372.8 125.26 371.41 125.26 370.02C125.27 368.63 125.18 367.24 125 365.86C124.81 364.48 124.52 363.12 124.14 361.78C123.76 360.45 123.28 359.14 122.71 357.87C122.08 356.43 121.34 355.05 120.49 353.74C119.64 352.42 118.68 351.18 117.63 350.02C116.57 348.86 115.43 347.78 114.2 346.81C112.97 345.84 111.67 344.96 110.3 344.2C109.44 343.71 108.56 343.26 107.65 342.86C106.75 342.46 105.82 342.11 104.88 341.8C103.94 341.5 102.98 341.24 102.01 341.04C101.04 340.84 100.06 340.68 99.08 340.58C97.95 340.46 96.82 340.4 95.68 340.41C94.55 340.42 93.42 340.49 92.29 340.62C91.17 340.76 90.05 340.96 88.95 341.22C87.84 341.49 86.76 341.81 85.69 342.2C84.87 342.49 84.06 342.83 83.27 343.2C82.49 343.57 81.71 343.98 80.97 344.42C80.22 344.86 79.49 345.34 78.78 345.86C78.08 346.37 77.4 346.92 76.75 347.5C75.61 348.47 74.56 349.53 73.58 350.67C72.61 351.8 71.72 353.01 70.94 354.28C70.15 355.55 69.46 356.88 68.87 358.26C68.29 359.63 67.81 361.05 67.44 362.5C66.82 364.95 66.52 367.47 66.54 369.99C66.57 372.52 66.92 375.03 67.58 377.47C68.25 379.9 69.22 382.24 70.48 384.43C71.75 386.62 73.28 388.63 75.06 390.43C77.06 392.43 79.34 394.13 81.82 395.48C84.3 396.83 86.97 397.82 89.73 398.41C92.5 399 95.33 399.19 98.15 398.98C100.97 398.76 103.75 398.14 106.39 397.14C106.52 397.07 106.65 397.02 106.79 396.99C106.93 396.95 107.07 396.93 107.22 396.93C107.36 396.93 107.51 396.95 107.65 396.98C107.79 397.01 107.92 397.06 108.05 397.13Z" />
				<path id="Layer" class="shp6" d="M61.75 426.6C60.95 426.1 60.2 425.51 59.53 424.84C58.86 424.18 58.26 423.44 57.76 422.64C57.25 421.84 56.83 420.99 56.51 420.1C56.19 419.21 55.97 418.29 55.85 417.35C55.78 416.66 55.73 415.97 55.69 415.28C55.65 414.59 55.62 413.9 55.6 413.21C55.58 412.52 55.57 411.83 55.58 411.14C55.58 410.45 55.6 409.76 55.63 409.07C55.63 405.4 55.63 401.72 55.63 398.07C55.57 397.96 55.52 397.84 55.47 397.73C55.42 397.61 55.38 397.49 55.34 397.37C55.3 397.25 55.27 397.12 55.25 397C55.22 396.87 55.2 396.75 55.19 396.62C55.19 393.13 55.1 389.62 55.25 386.15C55.25 385.8 55.19 385.46 55.25 385.15C55.13 382.54 55.15 379.93 55.25 377.32C55.25 376.98 55.1 376.64 55.25 376.32C55.25 372.18 55.25 368.04 55.25 363.91C55.25 363.36 55.25 362.82 55.25 362.27C55.25 359.27 55.18 356.27 55.25 353.32C55.18 348.24 55.25 343.15 55.25 338.07C55.24 337.89 55.23 337.71 55.22 337.53C55.22 337.34 55.22 337.16 55.22 336.98C55.22 336.8 55.22 336.62 55.22 336.43C55.23 336.25 55.24 336.07 55.25 335.89C55.25 333.04 55.14 330.19 55.25 327.34C55.14 323.16 55.25 318.98 55.19 314.8C55.19 314.63 55.19 314.45 55.19 314.28C55.19 314.11 55.2 313.94 55.2 313.76C55.21 313.59 55.22 313.42 55.23 313.25C55.24 313.07 55.25 312.9 55.27 312.73C55.15 304.95 55.15 297.17 55.27 289.39C55.31 288.93 55.37 288.47 55.45 288.01C55.53 287.55 55.62 287.09 55.74 286.64C55.85 286.19 55.98 285.74 56.13 285.3C56.28 284.86 56.45 284.43 56.63 284C59.34 279.19 63.38 276.42 68.96 276.4C85.53 276.34 102.09 276.4 118.66 276.4C119.06 276.41 119.46 276.43 119.85 276.47C120.25 276.51 120.65 276.57 121.04 276.64C121.43 276.71 121.82 276.79 122.21 276.89C122.59 276.99 122.97 277.11 123.35 277.24C124.57 278.08 126 278.54 127.17 279.47C127.61 279.8 128.03 280.17 128.43 280.56C128.82 280.95 129.19 281.36 129.52 281.8C129.86 282.24 130.17 282.71 130.44 283.19C130.72 283.67 130.96 284.17 131.17 284.68C131.35 285.01 131.51 285.35 131.65 285.7C131.79 286.05 131.9 286.41 132 286.77C132.09 287.13 132.16 287.5 132.2 287.88C132.25 288.25 132.27 288.62 132.27 289C132.28 289.05 132.29 289.1 132.29 289.15C132.3 289.2 132.3 289.25 132.3 289.29C132.3 289.34 132.3 289.39 132.29 289.44C132.29 289.49 132.28 289.54 132.27 289.59C132.41 299.7 132.27 309.81 132.33 319.92C132.33 333.73 132.33 347.55 132.33 361.37C132.34 361.55 132.34 361.73 132.35 361.92C132.35 362.1 132.35 362.28 132.34 362.46C132.33 362.64 132.32 362.83 132.31 363.01C132.3 363.19 132.28 363.37 132.26 363.55C132.23 363.87 132.21 364.18 132.19 364.5C132.17 364.81 132.16 365.13 132.15 365.45C132.15 365.77 132.14 366.08 132.15 366.4C132.15 366.72 132.16 367.03 132.17 367.35C132.17 371.35 132.26 375.41 132.17 379.43C132.01 385.05 131.89 390.67 132.02 396.29C132.02 396.35 132.01 396.42 132.01 396.48C132 396.54 132 396.6 131.99 396.67C131.98 396.73 131.97 396.79 131.96 396.85C131.95 396.92 131.93 396.98 131.92 397.04C130.58 395.23 129.48 393.27 128.3 391.36C128.3 391 128.3 390.63 128.3 390.27L128.3 292.75C128.35 291.51 128.2 290.27 127.87 289.08C127.53 287.88 127.02 286.75 126.33 285.71C125.65 284.68 124.81 283.75 123.85 282.97C122.89 282.19 121.81 281.57 120.65 281.12C120.33 280.99 120.01 280.88 119.68 280.78C119.36 280.68 119.02 280.59 118.69 280.53C118.35 280.46 118.01 280.41 117.67 280.37C117.33 280.34 116.99 280.32 116.65 280.32C101.55 280.32 86.45 280.32 71.36 280.32C69.87 280.35 68.4 280.66 67.03 281.23C65.66 281.81 64.4 282.63 63.34 283.67C62.27 284.71 61.41 285.94 60.79 287.3C60.18 288.65 59.83 290.11 59.76 291.6C59.76 292.04 59.76 292.48 59.76 292.91C59.76 328.97 59.76 365.03 59.76 401.08C59.71 402.05 59.78 403.03 59.97 403.98C60.16 404.94 60.46 405.86 60.87 406.75C61.28 407.63 61.79 408.46 62.4 409.22C63 409.98 63.7 410.67 64.47 411.26C65 411.67 65.57 412.04 66.17 412.36C66.76 412.67 67.38 412.94 68.02 413.15C68.66 413.36 69.32 413.52 69.99 413.61C70.65 413.71 71.33 413.76 72 413.74L109.53 413.74L107 425.49C106.91 425.58 106.82 425.67 106.71 425.74C106.61 425.81 106.5 425.87 106.38 425.91C106.26 425.96 106.14 425.99 106.01 426.01C105.88 426.02 105.76 426.02 105.63 426.01C102.58 426.01 99.54 426.09 96.49 425.96C93.72 426.06 90.95 426.06 88.18 425.96C85.63 426.06 83.09 426.06 80.54 425.96C77.7 426.05 74.86 426.07 72.03 425.96C71.31 426.03 70.59 426.06 69.87 426.05C69.15 426.04 68.42 425.99 67.71 425.9C66.99 425.81 66.28 425.68 65.58 425.5C64.88 425.33 64.19 425.12 63.51 424.87C62.84 424.59 62.51 424.79 62.4 425.52C62.39 425.63 62.38 425.74 62.34 425.84C62.31 425.95 62.27 426.05 62.21 426.14C62.15 426.24 62.09 426.32 62.01 426.4C61.93 426.48 61.84 426.54 61.75 426.6Z" />
				<path id="Layer" class="shp1" d="M99.75 370.15C96.28 370.46 95.97 372.89 96.3 375.58C96.44 376.69 96.67 377.78 96.86 378.89C95.21 380.34 94.86 382.5 93.86 384.31C93.81 384.39 93.77 384.47 93.75 384.56C93.73 384.65 93.73 384.74 93.76 384.83C93.78 384.92 93.82 385.01 93.87 385.08C93.93 385.16 94 385.22 94.08 385.26C94.5 385.48 94.77 385.21 94.97 384.88C95.1 384.65 95.22 384.41 95.34 384.17C95.47 383.94 95.59 383.7 95.7 383.46C95.82 383.22 95.93 382.98 96.04 382.73C96.15 382.49 96.26 382.25 96.36 382C96.58 381.51 96.71 380.86 97.47 380.85C97.57 381.07 97.67 381.29 97.76 381.52C97.85 381.74 97.94 381.97 98.02 382.2C98.11 382.42 98.19 382.65 98.26 382.88C98.33 383.11 98.4 383.35 98.47 383.58C98.4 383.78 98.37 383.99 98.38 384.2C98.39 384.4 98.44 384.61 98.54 384.8C98.63 384.98 98.76 385.15 98.92 385.29C99.08 385.42 99.27 385.52 99.47 385.58C99.84 386.21 100.23 386.84 100.63 387.45C101.03 388.07 101.45 388.68 101.87 389.27C102.3 389.87 102.74 390.46 103.19 391.04C103.65 391.61 104.11 392.18 104.59 392.74C104.66 393.43 104.14 393.61 103.67 393.74C102.77 394.05 101.85 394.3 100.92 394.5C99.98 394.7 99.04 394.84 98.09 394.92C97.14 395.01 96.19 395.03 95.23 395C94.28 394.97 93.33 394.88 92.39 394.74C91.3 394.59 90.22 394.36 89.16 394.06C88.1 393.77 87.06 393.4 86.04 392.97C85.03 392.53 84.05 392.03 83.1 391.46C82.16 390.9 81.25 390.27 80.39 389.58C79.25 388.69 78.2 387.69 77.24 386.61C76.28 385.53 75.42 384.37 74.67 383.13C73.91 381.9 73.27 380.6 72.75 379.26C72.22 377.91 71.82 376.52 71.54 375.1C70.91 371.88 70.92 368.56 71.57 365.35C72.22 362.13 73.5 359.07 75.33 356.35C77.17 353.63 79.52 351.3 82.26 349.49C85 347.68 88.07 346.42 91.29 345.8C93 345.44 94.75 345.28 96.5 345.3C98.25 345.33 99.99 345.56 101.69 345.97C103.39 346.38 105.03 346.98 106.6 347.76C108.17 348.54 109.64 349.49 111 350.59C113.07 352.17 114.87 354.06 116.34 356.21C117.82 358.35 118.94 360.72 119.67 363.21C120.41 365.71 120.74 368.3 120.65 370.9C120.57 373.5 120.08 376.08 119.19 378.52C119.03 378.98 118.92 379.52 118.19 379.52C117.62 379.04 117.05 378.56 116.46 378.1C115.88 377.64 115.29 377.18 114.69 376.74C114.09 376.29 113.48 375.86 112.87 375.43C112.26 375.01 111.64 374.59 111.01 374.19C110.95 374.06 110.9 373.92 110.86 373.78C110.82 373.64 110.8 373.5 110.79 373.36C110.78 373.21 110.79 373.07 110.81 372.92C110.83 372.78 110.86 372.64 110.91 372.5C110.97 372.11 110.91 371.74 110.5 371.61C110.09 371.48 109.85 371.78 109.68 372.14C109.51 372.5 109.46 372.93 109.02 373.09L107.24 372.24C107.14 372.07 107.06 371.89 106.99 371.7C106.92 371.51 106.87 371.32 106.84 371.12C106.81 370.93 106.79 370.73 106.8 370.53C106.8 370.33 106.82 370.13 106.86 369.94C106.86 369.39 106.83 368.84 106.76 368.29C106.69 367.74 106.59 367.2 106.45 366.67C106.32 366.13 106.15 365.61 105.95 365.09C105.75 364.58 105.52 364.08 105.26 363.59C105.24 363.54 105.22 363.49 105.2 363.44C105.18 363.39 105.16 363.34 105.14 363.29C105.12 363.24 105.1 363.19 105.07 363.14C105.05 363.1 105.03 363.05 105 363C104.8 362.75 104.57 362.59 104.25 362.74C104.18 362.77 104.12 362.81 104.07 362.87C104.02 362.92 103.98 362.98 103.95 363.05C103.92 363.12 103.91 363.19 103.91 363.26C103.9 363.34 103.92 363.41 103.94 363.48C103.98 363.6 104.02 363.72 104.07 363.84C104.12 363.95 104.16 364.07 104.22 364.19C104.27 364.3 104.32 364.41 104.38 364.53C104.44 364.64 104.5 364.75 104.56 364.86C104.75 365.27 104.92 365.69 105.07 366.12C105.21 366.55 105.33 366.98 105.42 367.42C105.51 367.87 105.58 368.32 105.62 368.77C105.66 369.22 105.67 369.67 105.66 370.12C105.66 370.59 105.66 371.12 105.15 371.34L102.07 370.43C102 370.34 101.93 370.24 101.88 370.14C101.82 370.03 101.78 369.92 101.74 369.81C101.71 369.7 101.68 369.59 101.66 369.47C101.64 369.35 101.64 369.24 101.64 369.12C101.24 365.5 98.1 364.96 95.79 365.5C95.48 365.57 95.18 365.68 94.9 365.83C94.61 365.98 94.36 366.17 94.13 366.4C93.9 366.62 93.71 366.88 93.55 367.16C93.4 367.44 93.28 367.74 93.21 368.05C93.13 368.31 93.06 368.57 93.01 368.84C92.96 369.1 92.92 369.37 92.91 369.64C92.89 369.91 92.89 370.18 92.91 370.45C92.93 370.73 92.97 370.99 93.02 371.26C93.11 371.63 93.22 372.01 93.69 371.97C94.16 371.93 94.2 371.52 94.23 371.16C94.28 370.5 94.23 369.85 94.29 369.16C94.32 368.82 94.41 368.49 94.56 368.18C94.71 367.87 94.91 367.6 95.16 367.36C95.4 367.13 95.69 366.94 96.01 366.81C96.32 366.68 96.66 366.61 97 366.6C97.35 366.55 97.71 366.57 98.06 366.65C98.4 366.73 98.73 366.88 99.03 367.08C99.32 367.28 99.57 367.53 99.78 367.82C99.98 368.12 100.13 368.44 100.21 368.79C100.35 369.32 100.48 369.9 99.75 370.15Z" />
				<path id="Layer" class="shp7" d="M118.23 379.49C118.47 379.01 118.69 378.52 118.88 378.03C119.08 377.53 119.25 377.02 119.4 376.51C119.54 375.99 119.67 375.47 119.77 374.95C119.86 374.42 119.94 373.89 119.99 373.36C120.17 372.16 120.26 370.96 120.25 369.75C120.23 368.54 120.12 367.33 119.92 366.14C119.71 364.95 119.41 363.77 119.01 362.63C118.62 361.49 118.13 360.38 117.56 359.31C113.56 351.72 107.29 347.13 98.68 346.05C97.06 345.83 95.42 345.79 93.79 345.92C92.16 346.05 90.54 346.35 88.97 346.81C87.41 347.28 85.89 347.91 84.46 348.69C83.02 349.48 81.67 350.41 80.43 351.48C79.18 352.48 78.03 353.61 77.01 354.85C75.99 356.08 75.09 357.42 74.34 358.84C73.58 360.25 72.98 361.74 72.52 363.28C72.07 364.82 71.77 366.4 71.64 368C71.48 369.49 71.46 371 71.58 372.5C71.71 374 71.98 375.48 72.39 376.93C72.8 378.37 73.35 379.78 74.04 381.12C74.72 382.46 75.53 383.73 76.46 384.91C78 386.95 79.85 388.74 81.94 390.2C84.04 391.67 86.35 392.79 88.8 393.53C91.25 394.27 93.79 394.62 96.35 394.57C98.91 394.51 101.44 394.06 103.85 393.21C103.92 393.18 103.98 393.15 104.04 393.12C104.11 393.08 104.17 393.04 104.23 393.01C104.29 392.97 104.35 392.93 104.41 392.88C104.47 392.84 104.53 392.8 104.58 392.75C104.9 393.09 105.22 393.44 105.52 393.79C105.83 394.15 106.13 394.51 106.42 394.88C106.71 395.25 106.99 395.63 107.26 396.01C107.53 396.39 107.8 396.78 108.05 397.17C107.45 397.4 106.84 397.61 106.23 397.82C105.62 398.02 105 398.21 104.38 398.38C103.76 398.55 103.14 398.71 102.51 398.86C101.88 399 101.25 399.13 100.62 399.25C99.19 399.49 97.74 399.62 96.29 399.64C94.84 399.67 93.39 399.58 91.95 399.39C90.51 399.2 89.09 398.9 87.7 398.5C86.3 398.1 84.94 397.59 83.62 396.99C82.73 396.6 81.86 396.17 81.01 395.69C80.17 395.21 79.35 394.69 78.55 394.13C77.76 393.57 77 392.97 76.26 392.33C75.53 391.69 74.83 391.01 74.17 390.3C73.1 389.17 72.12 387.96 71.25 386.68C70.37 385.4 69.59 384.05 68.93 382.65C68.26 381.25 67.71 379.79 67.27 378.3C66.84 376.81 66.52 375.29 66.32 373.75C65.93 370.82 65.98 367.85 66.46 364.94C66.94 362.02 67.85 359.2 69.16 356.55C70.47 353.9 72.16 351.46 74.18 349.3C76.2 347.15 78.53 345.3 81.09 343.83C81.99 343.33 82.92 342.88 83.87 342.47C84.82 342.06 85.79 341.7 86.77 341.39C87.76 341.09 88.76 340.83 89.77 340.62C90.78 340.41 91.8 340.25 92.83 340.15C94.33 339.98 95.84 339.92 97.34 339.99C98.85 340.05 100.34 340.23 101.82 340.53C103.3 340.83 104.75 341.24 106.16 341.76C107.58 342.29 108.95 342.92 110.26 343.66C111.45 344.31 112.59 345.03 113.68 345.84C114.77 346.64 115.8 347.52 116.76 348.47C117.73 349.41 118.63 350.42 119.45 351.5C120.28 352.57 121.03 353.69 121.7 354.87C122.43 356.13 123.07 357.44 123.61 358.79C124.15 360.14 124.59 361.52 124.93 362.94C125.27 364.35 125.5 365.79 125.63 367.23C125.76 368.68 125.78 370.14 125.7 371.59C125.65 372.55 125.55 373.51 125.4 374.46C125.26 375.41 125.06 376.35 124.82 377.29C124.58 378.22 124.29 379.14 123.96 380.04C123.62 380.94 123.24 381.83 122.82 382.69C122.77 382.77 122.72 382.86 122.68 382.95C122.64 383.04 122.6 383.14 122.57 383.23C122.54 383.33 122.52 383.42 122.5 383.52C122.48 383.62 122.47 383.72 122.47 383.82L118.23 379.49Z" />
				<path id="Layer" class="shp1" d="M57 284.26C56.83 284.64 56.67 285.03 56.52 285.42C56.38 285.81 56.25 286.21 56.13 286.61C56.02 287.01 55.92 287.42 55.84 287.82C55.75 288.23 55.68 288.65 55.63 289.06C55.15 289.67 54.45 289.54 53.81 289.54C47.71 289.54 41.6 289.54 35.49 289.54C35.2 289.54 34.91 289.54 34.62 289.55C34.33 289.56 34.04 289.58 33.75 289.6C33.46 289.61 33.17 289.64 32.88 289.67C32.59 289.7 32.3 289.73 32.01 289.77C31.4 289.86 30.8 290.05 30.25 290.33C29.71 290.62 29.21 290.99 28.79 291.44C28.36 291.89 28.02 292.41 27.77 292.98C27.52 293.55 27.38 294.15 27.33 294.77C27.33 295.1 27.33 295.42 27.33 295.77C27.33 319.05 27.33 342.33 27.33 365.6C27.32 365.86 27.32 366.12 27.34 366.37C27.36 366.63 27.39 366.89 27.45 367.14C27.5 367.39 27.57 367.64 27.65 367.89C27.73 368.13 27.83 368.37 27.95 368.6C28.17 369.06 28.46 369.48 28.81 369.86C29.15 370.24 29.55 370.56 29.98 370.83C30.42 371.09 30.89 371.29 31.39 371.42C31.88 371.56 32.39 371.61 32.9 371.6C38.03 371.6 43.15 371.6 48.28 371.6C48.49 371.59 48.7 371.6 48.91 371.6C49.11 371.61 49.32 371.62 49.53 371.64C49.74 371.65 49.95 371.68 50.15 371.71C50.36 371.74 50.57 371.77 50.77 371.81C51.43 372.13 51.85 372.55 51.47 373.34C51.41 373.39 51.34 373.44 51.27 373.48C51.2 373.52 51.12 373.55 51.04 373.58C50.97 373.6 50.89 373.62 50.8 373.62C50.72 373.63 50.64 373.63 50.56 373.62C44.45 373.24 38.34 373.56 32.23 373.45C32.06 373.44 31.89 373.43 31.72 373.41C31.55 373.39 31.38 373.37 31.21 373.34C31.05 373.3 30.88 373.26 30.72 373.22C30.55 373.17 30.39 373.12 30.23 373.06C29.55 372.83 28.91 372.5 28.33 372.07C27.75 371.64 27.24 371.13 26.82 370.54C26.4 369.96 26.07 369.31 25.85 368.63C25.63 367.94 25.52 367.23 25.52 366.51C25.52 357.96 25.52 349.4 25.52 340.85L25.52 295.16C25.49 294.49 25.57 293.81 25.73 293.16C25.9 292.5 26.16 291.88 26.51 291.3C26.85 290.72 27.28 290.19 27.78 289.74C28.27 289.28 28.83 288.9 29.44 288.6C29.76 288.44 30.08 288.3 30.42 288.18C30.75 288.06 31.09 287.96 31.44 287.89C31.78 287.81 32.13 287.76 32.49 287.73C32.84 287.7 33.2 287.69 33.55 287.7L52.55 287.7C52.66 287.71 52.77 287.71 52.88 287.71C52.99 287.72 53.1 287.72 53.21 287.72C53.31 287.72 53.42 287.72 53.53 287.71C53.64 287.71 53.75 287.71 53.86 287.7C54.01 287.68 54.16 287.63 54.29 287.56C54.43 287.48 54.54 287.38 54.64 287.26C54.73 287.13 54.8 286.99 54.84 286.85C54.87 286.7 54.88 286.54 54.86 286.39C54.86 285.66 54.25 285.67 53.74 285.67C51.74 285.67 49.81 285.67 47.84 285.67C42.84 285.67 37.84 285.62 32.78 285.67C31.92 285.7 31.07 285.57 30.26 285.29C29.45 285.02 28.69 284.59 28.03 284.04C27.37 283.49 26.82 282.83 26.4 282.08C25.98 281.34 25.7 280.52 25.57 279.67C24.93 275.44 27.12 272.09 31.01 271.06C31.22 271.02 31.44 270.99 31.66 270.96C31.87 270.94 32.09 270.92 32.31 270.91C32.52 270.9 32.74 270.89 32.96 270.89C33.18 270.9 33.39 270.9 33.61 270.92L101.71 270.92C117.24 270.92 132.78 270.92 148.31 270.92C149.65 270.85 150.98 271.15 152.16 271.79C153.34 272.42 154.32 273.36 155 274.51C155.68 275.67 156.04 276.98 156.03 278.32C156.02 279.66 155.64 280.97 154.94 282.11C154.64 282.66 154.26 283.17 153.82 283.62C153.38 284.06 152.88 284.45 152.34 284.76C151.79 285.07 151.2 285.31 150.6 285.46C149.99 285.61 149.36 285.68 148.73 285.66C146.58 285.66 144.43 285.66 142.29 285.66C141.72 285.66 141.05 285.6 141.07 286.5C141.05 286.66 141.07 286.83 141.12 286.99C141.18 287.15 141.27 287.29 141.38 287.41C141.5 287.52 141.64 287.61 141.8 287.67C141.96 287.72 142.13 287.74 142.29 287.72C144.36 287.72 146.43 287.72 148.51 287.72C149.33 287.72 150.14 287.86 150.92 288.12C151.7 288.39 152.42 288.78 153.07 289.28C153.72 289.78 154.28 290.39 154.74 291.07C155.19 291.75 155.53 292.51 155.74 293.3C155.79 293.51 155.82 293.73 155.86 293.94C155.89 294.16 155.91 294.38 155.92 294.59C155.94 294.81 155.95 295.03 155.95 295.25C155.94 295.46 155.94 295.68 155.92 295.9L155.92 363.69C155.92 364.6 155.92 365.51 155.92 366.42C155.92 366.95 155.86 367.47 155.74 367.99C155.61 368.5 155.43 369 155.2 369.47C154.96 369.94 154.67 370.39 154.33 370.79C154 371.2 153.61 371.56 153.19 371.88C152.33 372.57 152.31 372.83 152.8 373.81C155.44 379.25 157.8 384.81 158.8 390.81C158.83 390.94 158.85 391.08 158.87 391.21C158.89 391.35 158.9 391.48 158.91 391.62C158.91 391.75 158.92 391.89 158.91 392.02C158.91 392.16 158.9 392.3 158.88 392.43C158.74 393.26 159.16 393.56 159.88 393.58L161.41 393.58C185.24 393.58 209.07 393.58 232.89 393.58C233.65 393.58 234.52 393.28 235.12 394.07C235.03 394.09 234.94 394.1 234.85 394.12C234.77 394.13 234.68 394.14 234.59 394.15C234.5 394.16 234.41 394.17 234.32 394.18C234.23 394.19 234.14 394.2 234.05 394.2L143.65 394.2L143.65 393.84C143.72 393.77 143.81 393.71 143.89 393.66C143.98 393.61 144.08 393.57 144.18 393.55C144.28 393.53 144.38 393.51 144.48 393.52C144.58 393.52 144.68 393.53 144.78 393.56C145.51 393.64 146.25 393.7 146.99 393.74C147.73 393.78 148.47 393.79 149.2 393.78C149.94 393.77 150.68 393.73 151.42 393.67C152.15 393.61 152.89 393.53 153.62 393.42C154.45 393.37 155.28 393.33 156.11 393.2C156.77 393.1 156.93 392.79 156.92 392.2C156.91 391.89 156.89 391.58 156.86 391.28C156.83 390.97 156.79 390.66 156.74 390.36C156.69 390.05 156.64 389.75 156.57 389.45C156.5 389.15 156.43 388.85 156.34 388.55C155.99 387.28 155.62 386.02 155.2 384.78C154.79 383.53 154.35 382.29 153.88 381.06C153.4 379.84 152.9 378.63 152.36 377.43C151.82 376.23 151.26 375.04 150.66 373.87C150.33 373.2 149.86 372.54 150.2 371.71C150.42 371.25 150.88 371.06 151.27 370.81C151.7 370.54 152.09 370.22 152.44 369.85C152.79 369.48 153.08 369.07 153.32 368.62C153.56 368.18 153.74 367.7 153.85 367.21C153.97 366.71 154.02 366.21 154 365.7C154 342.33 154 318.96 154 295.61C154 291.82 151.7 289.71 147.5 289.56C145.61 289.5 143.71 289.56 141.82 289.56C141.68 289.57 141.55 289.58 141.41 289.58C141.27 289.58 141.14 289.57 141 289.55C140.87 289.54 140.73 289.52 140.6 289.5C140.46 289.47 140.33 289.44 140.2 289.4C140.12 289.38 140.04 289.36 139.97 289.32C139.89 289.29 139.83 289.24 139.76 289.19C139.7 289.13 139.65 289.07 139.6 289C139.56 288.93 139.52 288.86 139.5 288.78C139.14 287.36 138.79 285.93 138.33 284.54C138.59 283.77 139.26 283.81 139.87 283.8C142.78 283.8 145.69 283.8 148.6 283.8C149.55 283.78 150.48 283.52 151.29 283.03C152.11 282.55 152.79 281.86 153.25 281.03C153.72 280.21 153.97 279.28 153.97 278.33C153.97 277.38 153.72 276.44 153.25 275.62C153.03 275.2 152.75 274.81 152.42 274.47C152.1 274.12 151.73 273.82 151.32 273.57C150.92 273.32 150.48 273.13 150.02 273C149.57 272.87 149.1 272.8 148.62 272.79L33.76 272.79C33.46 272.77 33.16 272.76 32.86 272.78C32.56 272.79 32.27 272.83 31.97 272.88C31.68 272.93 31.38 273 31.1 273.09C30.81 273.18 30.53 273.29 30.26 273.41C29.72 273.69 29.23 274.06 28.81 274.5C28.39 274.95 28.04 275.45 27.79 276.01C27.53 276.56 27.37 277.16 27.31 277.77C27.25 278.37 27.29 278.99 27.43 279.58C27.57 280.18 27.8 280.74 28.12 281.26C28.45 281.78 28.86 282.24 29.33 282.62C29.81 283 30.35 283.3 30.93 283.5C31.5 283.71 32.11 283.81 32.72 283.81C39.92 283.81 47.12 283.81 54.32 283.81C54.87 283.81 55.42 283.81 55.96 283.81C56.5 283.81 56.77 283.84 57 284.26Z" />
				<path id="Layer" class="shp8" d="M74 429L73.84 428.84C74.07 428.3 74.57 428.31 75.03 428.3C76.82 428.3 78.61 428.22 80.4 428.3C80.57 428.29 80.75 428.28 80.92 428.27C81.1 428.27 81.27 428.27 81.45 428.27C81.62 428.27 81.79 428.27 81.97 428.27C82.14 428.28 82.32 428.29 82.49 428.3C82.65 428.34 82.82 428.38 82.98 428.42C83.15 428.45 83.32 428.49 83.48 428.52C83.65 428.54 83.82 428.57 83.99 428.59C84.15 428.62 84.32 428.63 84.49 428.65C85.05 428.65 85.39 429.06 85.73 429.44C87.34 431.3 88.87 433.23 90.46 435.11C93.8 439.11 97.03 443.11 100.36 447.11L98.59 453.45C98.57 453.55 98.54 453.64 98.49 453.73C98.44 453.81 98.37 453.89 98.29 453.95C98.22 454.01 98.13 454.05 98.03 454.08C97.94 454.11 97.84 454.12 97.74 454.11C97.52 454.13 97.31 454.13 97.09 454.13C96.88 454.13 96.66 454.12 96.44 454.1C96.23 454.08 96.02 454.05 95.8 454.01C95.59 453.97 95.38 453.93 95.17 453.87C93.89 453.2 93.17 451.96 92.34 450.87C89.79 447.8 87.34 444.7 84.71 441.67C81.1 437.52 77.76 433.08 74 429Z" />
				<path id="Layer" class="shp9" d="M150.35 372.05C151.97 375.5 153.58 378.96 154.94 382.53C155.28 383.35 155.58 384.19 155.86 385.04C156.13 385.88 156.38 386.74 156.59 387.6C156.8 388.47 156.99 389.34 157.14 390.21C157.29 391.09 157.4 391.97 157.49 392.86C157.49 393.45 157.33 393.64 156.78 393.66C155.78 393.66 154.83 393.81 153.85 393.88C151.23 394.11 148.6 393.88 145.97 393.97C145.86 393.99 145.76 394 145.65 394.01C145.54 394.01 145.43 394.01 145.32 394C145.22 394 145.11 393.98 145 393.96C144.9 393.94 144.79 393.91 144.69 393.88L143.63 393.88L143.63 393.66C144.11 393.03 144.81 393.21 145.45 393.19C146.95 393.13 147.2 392.87 147.02 391.44C146.44 386.83 146.17 382.19 145.51 377.59C145.36 376.51 145.38 375.42 145.13 374.35C144.81 372.96 145.66 372.28 146.71 371.73C147.71 371.47 148.79 371.63 149.82 371.39C150.2 371.44 150.29 371.73 150.35 372.05Z" />
				<path id="Layer" class="shp10" d="M100.34 447.14C100.24 447.14 100.14 447.13 100.05 447.11C99.95 447.09 99.86 447.05 99.77 447.01C99.69 446.96 99.6 446.91 99.53 446.84C99.46 446.78 99.39 446.7 99.34 446.62C97.43 444.31 95.52 441.99 93.6 439.68C90.76 436.26 87.92 432.84 85.08 429.41C85.02 429.34 84.95 429.28 84.87 429.23C84.8 429.18 84.71 429.13 84.63 429.1C84.54 429.07 84.45 429.04 84.36 429.03C84.27 429.02 84.17 429.02 84.08 429.03C83.96 429.04 83.85 429.05 83.73 429.05C83.61 429.05 83.49 429.05 83.38 429.03C83.26 429.02 83.14 429 83.03 428.98C82.91 428.95 82.8 428.92 82.69 428.88C82.92 428.34 83.42 428.35 83.88 428.34C85.27 428.34 86.66 428.28 88.05 428.34C89.58 428.26 91.11 428.26 92.63 428.34C92.81 428.38 93 428.43 93.18 428.46C93.37 428.5 93.56 428.53 93.74 428.57C93.93 428.6 94.12 428.62 94.31 428.64C94.49 428.67 94.68 428.69 94.87 428.7C95.37 428.7 95.65 429.04 95.94 429.37C98.14 431.91 100.14 434.62 102.44 437.08C102.5 437.16 102.55 437.25 102.6 437.33C102.64 437.42 102.69 437.51 102.73 437.6C102.77 437.69 102.81 437.78 102.85 437.87C102.88 437.96 102.91 438.06 102.94 438.15C102.25 440.93 101.36 443.65 100.51 446.39C100.45 446.65 100.4 446.89 100.34 447.14Z" />
				<path id="Layer" class="shp11" d="M74 429C75.35 428.8 75.64 430.07 76.23 430.76C78.83 433.76 81.23 436.95 83.85 439.98C86.21 442.73 88.41 445.61 90.85 448.33C91.17 448.75 91.5 449.17 91.84 449.58C92.17 449.99 92.51 450.4 92.86 450.8C93.21 451.2 93.56 451.6 93.91 451.99C94.27 452.39 94.63 452.78 95 453.16C95.04 453.21 95.08 453.26 95.11 453.31C95.14 453.37 95.17 453.43 95.19 453.49C95.21 453.55 95.23 453.61 95.24 453.67C95.25 453.73 95.25 453.8 95.25 453.86C94.49 453.76 93.73 453.61 92.98 453.41C92.24 453.22 91.5 452.98 90.79 452.69C90.07 452.41 89.37 452.09 88.69 451.72C88.01 451.35 87.36 450.95 86.73 450.5C81.23 446.81 78.1 441.4 75.87 435.37C75.66 434.86 75.47 434.34 75.28 433.81C75.1 433.29 74.93 432.76 74.78 432.23C74.62 431.7 74.48 431.16 74.35 430.63C74.22 430.09 74.1 429.54 74 429Z" />
				<path id="Layer" class="shp12" d="M146.87 372C145.64 372.54 145.55 373.41 145.69 374.71C146.1 378.44 146.69 382.16 146.9 385.92C147.02 388.01 147.32 390.09 147.62 392.16C147.76 393.16 147.28 393.53 146.46 393.59C145.64 393.65 144.57 393.59 143.63 393.59C143.47 391.82 143.25 390.05 143.16 388.27C143.04 386.02 141.98 384.1 141.06 382.13C139.6 379.01 138.3 375.8 136.6 372.79C136.59 372.76 136.58 372.73 136.58 372.69C136.58 372.66 136.58 372.63 136.59 372.6C136.59 372.57 136.6 372.53 136.61 372.5C136.62 372.47 136.64 372.45 136.66 372.42C136.82 372.27 136.99 372.14 137.17 372.03C137.35 371.91 137.55 371.82 137.75 371.74C137.95 371.67 138.16 371.61 138.37 371.58C138.58 371.54 138.8 371.52 139.01 371.53C139.79 371.53 140.58 371.47 141.37 371.47C142.76 371.59 144.15 371.41 145.53 371.47C146 371.59 146.56 371.51 146.87 372Z" />
				<path id="Layer" class="shp13" d="M103 438.17C102.73 437.94 102.47 437.71 102.21 437.47C101.95 437.23 101.7 436.98 101.46 436.72C101.22 436.47 100.98 436.2 100.75 435.94C100.52 435.67 100.3 435.39 100.09 435.11C98.54 433.26 97.02 431.37 95.53 429.47C95.47 429.4 95.4 429.33 95.33 429.27C95.25 429.21 95.17 429.17 95.08 429.13C95 429.09 94.91 429.06 94.81 429.04C94.72 429.02 94.62 429.02 94.53 429.02C94.4 429.04 94.28 429.05 94.15 429.05C94.02 429.05 93.9 429.05 93.77 429.03C93.64 429.02 93.52 429 93.4 428.97C93.27 428.95 93.15 428.91 93.03 428.87C93.24 428.39 93.68 428.37 94.11 428.34C94.31 428.33 94.52 428.32 94.72 428.31C94.92 428.31 95.13 428.3 95.33 428.3C95.53 428.3 95.74 428.31 95.94 428.31C96.14 428.32 96.35 428.33 96.55 428.34C99.18 428.22 101.8 428.28 104.43 428.34C104.92 428.34 105.43 428.34 105.73 428.89L103 438.17Z" />
				<path id="Layer" class="shp14" d="M136.6 372.67C136.6 372.68 136.6 372.7 136.59 372.71C136.59 372.73 136.59 372.74 136.59 372.76C136.59 372.78 136.59 372.79 136.59 372.81C136.6 372.82 136.6 372.84 136.6 372.85C136.39 374.85 136.18 376.93 135.95 378.97C135.94 379.03 135.93 379.09 135.91 379.15C135.9 379.21 135.88 379.27 135.86 379.33C135.85 379.39 135.83 379.45 135.81 379.51C135.79 379.56 135.77 379.62 135.75 379.68C135.53 379.76 135.31 379.83 135.08 379.88C134.86 379.94 134.63 379.99 134.4 380.02C134.17 380.06 133.94 380.08 133.71 380.1C133.47 380.11 133.24 380.12 133.01 380.11C132.55 380.11 132.01 380.11 131.92 379.47C131.92 374.27 131.92 369.08 131.92 363.9C131.92 363.62 131.92 363.36 132.34 363.52C132.42 363.56 132.5 363.61 132.57 363.67C132.64 363.72 132.7 363.79 132.76 363.85C132.82 363.92 132.88 363.99 132.93 364.07C132.97 364.15 133.02 364.23 133.05 364.31C134.32 366.66 135.35 369.13 136.55 371.52C136.6 371.61 136.64 371.7 136.66 371.8C136.69 371.89 136.71 371.99 136.71 372.09C136.71 372.19 136.71 372.29 136.69 372.39C136.67 372.48 136.64 372.58 136.6 372.67Z" />
				<path id="Layer" class="shp15" d="M132.06 379.66C133.28 379.89 134.52 379.12 135.75 379.66C135.27 384.82 134.67 389.96 133.94 395.09C133.78 396.26 133.31 396.55 132.05 396.46C131.99 396.37 131.94 396.27 131.9 396.17C131.86 396.07 131.83 395.96 131.81 395.86C131.79 395.75 131.78 395.64 131.78 395.53C131.78 395.43 131.79 395.32 131.81 395.21C131.81 391.28 131.76 387.35 131.81 383.42C131.8 383.11 131.79 382.79 131.8 382.48C131.8 382.16 131.81 381.85 131.83 381.53C131.86 381.22 131.88 380.91 131.92 380.59C131.96 380.28 132.01 379.97 132.06 379.66Z" />
				<path id="Layer" class="shp6" d="M99.75 370.15C100.08 368.2 99.39 367.29 97.41 367.07C95.78 366.9 94.77 367.81 94.69 369.57C94.69 370.22 94.69 370.87 94.69 371.57C94.7 371.7 94.69 371.83 94.66 371.95C94.62 372.08 94.56 372.19 94.48 372.29C94.4 372.4 94.31 372.48 94.19 372.55C94.08 372.61 93.96 372.65 93.83 372.67C93.7 372.71 93.57 372.72 93.44 372.7C93.31 372.69 93.19 372.65 93.08 372.58C92.96 372.52 92.86 372.43 92.78 372.33C92.7 372.23 92.64 372.11 92.6 371.99C91.29 369.28 93.31 365.22 96.21 364.92C99.8 364.55 102.46 366.16 102.04 370.47L99.75 370.15Z" />
				<path id="Layer" class="shp16" d="M105.65 428.89L96.47 428.79C96.3 428.55 96.17 428.29 96.08 428.02C95.99 427.74 95.95 427.45 95.95 427.16C95.95 426.88 95.99 426.59 96.08 426.31C96.17 426.04 96.3 425.78 96.47 425.54L107.01 425.54C106.88 426.39 106.71 427.24 106.63 428.1C106.55 428.71 106.25 429 105.65 428.89Z" />
				<path id="Layer" class="shp17" d="M80.51 428.8L73.79 428.88L73.55 428.88L71.79 428.78C71.62 428.54 71.49 428.29 71.4 428.01C71.32 427.74 71.27 427.45 71.27 427.16C71.27 426.87 71.32 426.58 71.4 426.31C71.49 426.03 71.62 425.78 71.79 425.54L80.52 425.54C80.68 425.78 80.81 426.04 80.89 426.32C80.97 426.6 81.02 426.88 81.01 427.17C81.01 427.46 80.97 427.75 80.88 428.02C80.8 428.3 80.67 428.56 80.51 428.8L80.51 428.8Z" />
				<path id="Layer" class="shp6" d="M105.13 371.34C105.19 370.72 105.21 370.09 105.18 369.47C105.15 368.84 105.07 368.22 104.94 367.61C104.82 366.99 104.64 366.39 104.43 365.8C104.21 365.22 103.95 364.65 103.65 364.1C103.46 363.76 103.18 363.42 103.31 362.99C103.34 362.87 103.38 362.75 103.44 362.64C103.5 362.53 103.58 362.43 103.66 362.34C103.75 362.26 103.85 362.18 103.96 362.12C104.07 362.06 104.19 362.02 104.31 361.99C104.86 361.86 105.19 362.21 105.45 362.64C105.73 363.1 105.98 363.57 106.21 364.06C106.43 364.54 106.62 365.04 106.79 365.55C106.95 366.06 107.08 366.58 107.18 367.11C107.28 367.63 107.35 368.17 107.39 368.7C107.47 369.85 107.39 371.01 107.33 372.17L105.13 371.34Z" />
				<path id="Layer" class="shp6" d="M97.47 380.81C96.81 382.18 96.16 383.56 95.47 384.93C95.13 385.61 94.7 386.26 93.79 385.79C92.88 385.32 93.08 384.64 93.44 383.91C94.09 382.58 94.71 381.23 95.35 379.91C95.64 379.27 96.05 378.8 96.84 378.91C97.06 379.53 97.27 380.17 97.47 380.81Z" />
				<path id="Layer" class="shp18" d="M132.06 379.66C132.06 385.27 132.06 390.87 132.06 396.48L131.88 396.99C131.82 396.72 131.77 396.44 131.73 396.17C131.69 395.89 131.66 395.61 131.64 395.33C131.62 395.05 131.62 394.78 131.62 394.5C131.62 394.22 131.64 393.94 131.66 393.66C131.71 383.57 131.76 373.48 131.82 363.39C131.84 363.39 131.87 363.4 131.89 363.41C131.91 363.42 131.93 363.43 131.94 363.45C131.96 363.47 131.97 363.49 131.98 363.51C131.99 363.53 131.99 363.56 131.99 363.58C132 368.94 132.02 374.3 132.06 379.66Z" />
				<path id="Layer" class="shp19" d="M109.06 373.06C109.13 372.68 109.2 372.29 109.29 371.9C109.3 371.75 109.35 371.6 109.43 371.46C109.51 371.33 109.62 371.22 109.75 371.13C109.87 371.04 110.02 370.98 110.17 370.96C110.33 370.94 110.48 370.95 110.63 370.99C110.78 371.02 110.93 371.08 111.05 371.17C111.18 371.25 111.29 371.37 111.37 371.5C111.45 371.63 111.5 371.78 111.52 371.93C111.54 372.09 111.52 372.24 111.48 372.39C111.38 372.99 111.2 373.57 111.05 374.16L109.06 373.06Z" />
				<path id="Layer" class="shp20" d="M99.46 385.55C98.88 385.63 98.3 385.74 97.98 385.04C97.92 384.91 97.88 384.77 97.87 384.63C97.86 384.48 97.88 384.34 97.92 384.2C97.96 384.06 98.03 383.93 98.12 383.82C98.21 383.71 98.32 383.61 98.44 383.54L99.46 385.55Z" />
				<path id="Layer" class="shp1" d="M235.12 394.11L230.75 394.11L159.81 394.11C158.14 394.11 158.01 393.98 158.34 392.38C158.36 392.18 158.37 391.98 158.38 391.78C158.38 391.59 158.37 391.39 158.35 391.19C158.33 390.99 158.3 390.79 158.26 390.6C158.22 390.4 158.17 390.21 158.11 390.02C157.84 388.83 157.54 387.65 157.21 386.48C156.88 385.31 156.51 384.15 156.11 383C155.72 381.85 155.29 380.71 154.83 379.58C154.37 378.45 153.87 377.34 153.35 376.24C153.24 375.98 153.12 375.73 153 375.47C152.88 375.22 152.76 374.97 152.63 374.72C152.5 374.47 152.37 374.22 152.23 373.97C152.1 373.73 151.96 373.48 151.82 373.24C151.5 372.72 151.51 372.33 152.09 371.99C154.59 370.53 155.4 368.25 155.4 365.46C155.4 342.13 155.4 318.77 155.4 295.38C155.42 294.44 155.25 293.51 154.9 292.64C154.56 291.77 154.04 290.97 153.38 290.31C152.72 289.64 151.93 289.11 151.07 288.76C150.2 288.4 149.27 288.22 148.33 288.23C146.18 288.15 144.03 288.23 141.89 288.23C140.98 288.23 140.48 287.94 140.55 286.99C140.55 286.4 139.96 285.76 140.36 285.34C140.76 284.92 141.61 285.18 142.25 285.17C144.4 285.17 146.54 285.17 148.69 285.17C149.29 285.19 149.89 285.13 150.48 284.98C151.06 284.83 151.62 284.59 152.13 284.29C152.65 283.98 153.12 283.6 153.53 283.16C153.94 282.72 154.28 282.22 154.55 281.68C154.86 281.14 155.09 280.57 155.25 279.96C155.4 279.36 155.47 278.74 155.45 278.12C155.44 277.5 155.34 276.89 155.15 276.3C154.97 275.71 154.71 275.14 154.37 274.62C154.08 274.11 153.72 273.65 153.31 273.24C152.89 272.83 152.43 272.48 151.92 272.2C151.41 271.92 150.86 271.71 150.29 271.57C149.72 271.44 149.14 271.39 148.56 271.41L32.78 271.41C31.97 271.39 31.16 271.52 30.39 271.79C29.63 272.06 28.92 272.47 28.3 273C27.68 273.52 27.16 274.16 26.77 274.87C26.37 275.58 26.11 276.36 26 277.16C25.6 281.16 27.71 284.29 31.41 285.06C31.52 285.08 31.63 285.09 31.73 285.1C31.84 285.11 31.95 285.12 32.06 285.13C32.17 285.13 32.28 285.13 32.38 285.14C32.49 285.14 32.6 285.13 32.71 285.13L54.21 285.13C55.71 285.13 55.71 285.13 55.43 286.55C55.11 288.17 55.09 288.19 53.43 288.19C46.7 288.19 39.97 288.19 33.24 288.19C32.62 288.16 32 288.21 31.4 288.34C30.8 288.48 30.21 288.69 29.67 288.98C29.12 289.27 28.62 289.63 28.17 290.05C27.71 290.47 27.32 290.95 27 291.48C26.84 291.74 26.69 292.01 26.57 292.3C26.44 292.58 26.34 292.87 26.25 293.17C26.17 293.46 26.11 293.76 26.06 294.07C26.02 294.37 26 294.68 26 294.99C26 318.76 26 342.52 26 366.28C25.99 367.15 26.15 368.02 26.48 368.83C26.81 369.64 27.3 370.38 27.92 371C28.54 371.61 29.28 372.1 30.09 372.43C30.9 372.76 31.77 372.92 32.64 372.91C37.92 372.91 43.19 372.91 48.47 372.91C49.52 372.91 50.56 373.03 51.61 373.09C52.66 373.15 52.85 373.67 53.16 374.34C53.15 374.49 53.16 374.64 53.19 374.79C53.23 374.94 53.28 375.08 53.36 375.21C53.43 375.35 53.53 375.47 53.64 375.57C53.76 375.67 53.88 375.76 54.02 375.82C54.6 376.17 55.1 376.64 55.65 377.05L55.65 385.13C55.01 385.61 54.49 385.13 53.96 384.89C53.43 384.65 53.08 384.54 52.75 385.09C52.73 385.11 52.71 385.12 52.69 385.13C52.67 385.15 52.64 385.16 52.62 385.17C52.6 385.18 52.58 385.19 52.55 385.2C52.53 385.21 52.5 385.22 52.48 385.23C52.35 385.23 52.23 385.25 52.11 385.3C51.99 385.35 51.88 385.42 51.79 385.5C51.7 385.59 51.62 385.7 51.57 385.81C51.52 385.93 51.49 386.05 51.48 386.18C51.36 387.1 50.62 388.07 51.63 388.94C51.68 389.05 51.71 389.16 51.74 389.28C51.76 389.4 51.78 389.52 51.78 389.64C51.78 389.76 51.76 389.88 51.74 390C51.71 390.12 51.68 390.23 51.63 390.34C50.71 391.16 51.3 392.04 51.51 392.92C51.62 393.37 52.19 393.92 51.25 394.19L30.57 394.19C30.47 394.2 30.37 394.21 30.27 394.22C30.17 394.22 30.07 394.22 29.98 394.21C29.88 394.21 29.78 394.19 29.68 394.18C29.58 394.16 29.49 394.14 29.39 394.11L28.56 394.06C28.49 393.99 28.42 393.92 28.34 393.86C28.26 393.81 28.17 393.76 28.08 393.72C27.99 393.68 27.89 393.64 27.8 393.62C27.7 393.6 27.6 393.59 27.5 393.59C27.01 393.53 26.52 393.44 26.04 393.32C25.56 393.21 25.09 393.07 24.62 392.91C24.15 392.74 23.7 392.56 23.25 392.35C22.8 392.14 22.36 391.9 21.94 391.65C21.56 391.44 21.19 391.21 20.83 390.96C20.47 390.71 20.12 390.44 19.78 390.16C19.45 389.88 19.13 389.59 18.82 389.27C18.51 388.96 18.22 388.64 17.94 388.3C17.73 388.07 17.52 387.82 17.33 387.57C17.14 387.32 16.96 387.06 16.8 386.79C16.63 386.52 16.47 386.25 16.33 385.96C16.19 385.68 16.06 385.39 15.94 385.1C15.81 384.81 15.69 384.52 15.57 384.23C15.46 383.94 15.36 383.64 15.26 383.34C15.17 383.04 15.09 382.73 15.02 382.43C14.94 382.12 14.88 381.81 14.83 381.5C14.82 381.41 14.81 381.32 14.78 381.23C14.76 381.15 14.73 381.06 14.69 380.98C14.65 380.9 14.6 380.82 14.55 380.75C14.49 380.68 14.43 380.61 14.36 380.55L14.36 379.72C14.86 375.72 14.58 371.72 14.58 367.79C14.58 328.7 14.58 289.61 14.58 250.54C14.62 249.82 14.64 249.1 14.65 248.37C14.66 247.65 14.66 246.93 14.64 246.21C14.62 245.48 14.59 244.76 14.54 244.04C14.5 243.32 14.44 242.6 14.36 241.88L14.36 241.88C14.42 241.82 14.48 241.77 14.55 241.73C14.62 241.69 14.69 241.65 14.77 241.63C14.85 241.6 14.93 241.58 15.01 241.57C15.09 241.56 15.17 241.56 15.25 241.57C15.54 241.57 15.84 241.57 16.13 241.57L248.6 241.57C249.2 241.57 249.85 241.39 250.37 241.88C250.41 242.01 250.45 242.14 250.48 242.28C250.51 242.41 250.53 242.54 250.54 242.68C250.56 242.82 250.57 242.95 250.57 243.09C250.56 243.23 250.56 243.36 250.54 243.5L250.54 378.11C250.54 385.26 246.89 390.67 240.35 393.28C239.94 393.44 239.51 393.59 239.08 393.7C238.66 393.82 238.22 393.91 237.78 393.98C237.34 394.05 236.9 394.1 236.45 394.12C236.01 394.14 235.56 394.14 235.12 394.11L235.12 394.11Z" />
				<path id="Layer" class="shp1" d="M250.37 241.88L14.37 241.88L14.37 241.24C14.46 241.21 14.56 241.18 14.66 241.16C14.75 241.13 14.85 241.12 14.95 241.11C15.05 241.1 15.15 241.1 15.25 241.11C15.35 241.11 15.45 241.12 15.55 241.14L249.15 241.14C249.25 241.12 249.35 241.11 249.45 241.11C249.55 241.1 249.65 241.1 249.75 241.11C249.85 241.12 249.95 241.13 250.04 241.16C250.14 241.18 250.24 241.21 250.33 241.24L250.37 241.88Z" />
				<path id="Layer" class="shp1" d="M14.35 241.88C14.49 242.05 14.6 242.23 14.7 242.42C14.8 242.61 14.88 242.81 14.94 243.01C15 243.22 15.04 243.43 15.05 243.65C15.07 243.86 15.06 244.08 15.03 244.29C15.03 288.59 15.03 332.89 15.03 377.2C15.06 377.42 15.06 377.65 15.05 377.87C15.03 378.09 14.99 378.31 14.94 378.53C14.88 378.74 14.8 378.95 14.7 379.15C14.6 379.35 14.48 379.54 14.35 379.72C14.31 379.59 14.27 379.46 14.24 379.33C14.21 379.19 14.19 379.06 14.17 378.92C14.16 378.79 14.15 378.65 14.15 378.52C14.15 378.38 14.16 378.25 14.18 378.11C14.18 333.24 14.18 288.36 14.18 243.49C14.16 243.35 14.15 243.22 14.15 243.08C14.15 242.95 14.15 242.81 14.17 242.67C14.18 242.54 14.2 242.4 14.23 242.27C14.27 242.14 14.3 242.01 14.35 241.88L14.35 241.88Z" />
				<path id="Layer" class="shp21" d="M250.33 241.24L14.38 241.24C14.71 240.89 15.13 241.04 15.51 241.04L249.2 241.04C249.58 241 250 240.89 250.33 241.24Z" />
				<path id="Layer" class="shp5" d="M52.41 384.94C52.42 384.94 52.44 384.94 52.45 384.94C52.47 384.94 52.48 384.93 52.49 384.93C52.51 384.93 52.52 384.92 52.53 384.91C52.55 384.91 52.56 384.9 52.57 384.89C53.86 384.51 54.72 385.28 55.57 386.01L55.57 398.01C55.35 397.8 55.12 397.58 54.91 397.37C54.69 397.15 54.48 396.93 54.27 396.7C54.06 396.48 53.85 396.25 53.65 396.02C53.44 395.78 53.24 395.55 53.05 395.31C53.01 395.21 52.97 395.1 52.93 395C52.88 394.9 52.83 394.8 52.77 394.71C52.71 394.61 52.65 394.52 52.58 394.43C52.52 394.35 52.45 394.26 52.37 394.18L52.07 394.01C51.85 393.76 51.67 393.49 51.52 393.2C51.37 392.91 51.25 392.6 51.18 392.28C51.1 391.97 51.06 391.64 51.07 391.31C51.07 390.98 51.12 390.66 51.2 390.34C51.23 390.21 51.25 390.09 51.26 389.96C51.28 389.83 51.29 389.7 51.29 389.57C51.29 389.45 51.28 389.32 51.26 389.19C51.25 389.06 51.23 388.94 51.2 388.81C51.11 388.46 51.07 388.11 51.07 387.75C51.08 387.39 51.14 387.04 51.25 386.7C51.35 386.36 51.51 386.04 51.7 385.74C51.9 385.44 52.14 385.17 52.41 384.94L52.41 384.94Z" />
				<path id="Layer" class="shp1" d="M14.39 380.55C15.16 380.55 15.26 381.09 15.34 381.63C15.42 382.08 15.52 382.53 15.64 382.98C15.76 383.42 15.91 383.86 16.07 384.28C16.24 384.71 16.43 385.13 16.64 385.54C16.85 385.95 17.09 386.35 17.34 386.73C17.52 386.98 17.71 387.23 17.91 387.47C18.1 387.71 18.3 387.95 18.51 388.18C18.72 388.41 18.93 388.64 19.14 388.86C19.36 389.08 19.58 389.3 19.81 389.51C21.52 391.51 23.94 392.03 26.12 393.08C26.2 393.11 26.29 393.14 26.38 393.16C26.47 393.18 26.56 393.19 26.65 393.2C26.74 393.2 26.83 393.2 26.92 393.19C27.01 393.17 27.09 393.16 27.18 393.13C27.94 392.97 28.47 393.19 28.54 394.06C27.53 394.03 26.53 393.89 25.54 393.65C24.56 393.41 23.61 393.06 22.71 392.61C21.8 392.17 20.94 391.62 20.15 390.99C19.36 390.36 18.64 389.65 18 388.87C17.47 388.31 16.99 387.7 16.57 387.06C16.15 386.41 15.78 385.73 15.47 385.02C15.17 384.32 14.92 383.58 14.74 382.83C14.56 382.08 14.44 381.32 14.39 380.55L14.39 380.55Z" />
				<path id="Layer" class="shp21" d="M52.31 394.07C52.32 394.08 52.33 394.09 52.33 394.11C52.34 394.12 52.35 394.13 52.36 394.14C52.36 394.15 52.37 394.17 52.37 394.18C52.38 394.19 52.39 394.21 52.39 394.22L30.13 394.22C30.07 394.21 30 394.21 29.94 394.2C29.88 394.19 29.82 394.18 29.76 394.17C29.69 394.16 29.63 394.14 29.57 394.13C29.51 394.11 29.45 394.1 29.39 394.08L48.97 394.08L51.47 394.08C51.53 394.03 51.59 393.99 51.66 393.96C51.74 393.94 51.81 393.92 51.89 393.92C51.96 393.92 52.04 393.93 52.11 393.96C52.18 393.98 52.25 394.02 52.31 394.07Z" />
				<path id="Layer" class="shp22" d="M71.79 425.55L71.79 428.79C68.23 429.05 64.79 428.79 61.79 426.6C61.79 426.31 61.79 426.03 61.89 425.74C62.26 423.82 62.27 423.8 64.06 424.53C66.53 425.55 69.16 425.54 71.79 425.55Z" />
				<path id="Layer" class="shp21" d="M50.77 372L32.77 372C31.98 372.02 31.2 371.88 30.47 371.6C29.73 371.31 29.07 370.87 28.51 370.32C27.95 369.77 27.5 369.11 27.21 368.38C26.91 367.65 26.76 366.87 26.77 366.08L26.77 295.18C26.76 294.45 26.89 293.73 27.14 293.05C27.4 292.37 27.77 291.74 28.26 291.19C28.74 290.65 29.32 290.2 29.97 289.87C30.61 289.54 31.32 289.33 32.04 289.25C32.37 289.21 32.7 289.18 33.04 289.16C33.37 289.13 33.7 289.11 34.04 289.09C34.37 289.08 34.7 289.07 35.04 289.06C35.37 289.05 35.71 289.05 36.04 289.06L55.62 289.06L55.62 312.64C55.15 313.14 54.62 312.92 54.08 312.8C52.74 312.47 51.39 312.21 50.08 311.85C48.93 311.53 48.77 311.66 48.73 312.85C48.72 313.41 48.73 313.98 48.78 314.54C48.83 315.1 48.9 315.65 49 316.21C49.1 316.76 49.24 317.31 49.39 317.85C49.55 318.39 49.74 318.92 49.95 319.44C50.2 320.08 50.5 320.71 50.83 321.31C51.16 321.92 51.53 322.5 51.94 323.06C52.34 323.62 52.78 324.16 53.25 324.66C53.72 325.17 54.22 325.65 54.75 326.09C54.84 326.18 54.92 326.27 55.01 326.36C55.09 326.46 55.17 326.56 55.24 326.66C55.31 326.76 55.39 326.86 55.45 326.97C55.52 327.07 55.58 327.18 55.64 327.29L55.64 335.8C54.95 336.23 54.36 335.8 53.8 335.54C52.52 334.94 51.22 334.39 49.95 333.77C49.07 333.34 48.83 333.48 48.73 334.4C48.62 335.16 48.55 335.93 48.5 336.7C48.45 337.47 48.44 338.24 48.45 339.01C48.47 339.78 48.51 340.55 48.59 341.31C48.67 342.08 48.77 342.84 48.91 343.6C49.04 344.4 49.26 345.18 49.55 345.94C49.84 346.69 50.2 347.42 50.64 348.1C51.07 348.78 51.58 349.42 52.14 350C52.71 350.58 53.33 351.1 54 351.56C54.18 351.65 54.35 351.76 54.51 351.88C54.67 352 54.82 352.13 54.95 352.27C55.09 352.42 55.22 352.57 55.33 352.74C55.44 352.9 55.54 353.08 55.62 353.26L55.62 362.15C55.18 362.5 54.73 362.33 54.28 362.15C53.15 361.76 52.03 361.35 50.91 360.92C50.25 360.67 49.91 360.92 49.75 361.56C49.51 362.3 49.34 363.05 49.24 363.82C49.15 364.59 49.14 365.37 49.21 366.14C49.28 366.91 49.42 367.68 49.64 368.42C49.87 369.16 50.16 369.88 50.53 370.56C50.73 371 51.17 371.45 50.77 372Z" />
				<path id="Layer" class="shp21" d="M57 284.26L32.88 284.26C31.31 284.43 29.73 283.97 28.49 282.98C27.26 281.99 26.46 280.56 26.28 278.98C26.1 277.41 26.54 275.83 27.52 274.59C28.5 273.34 29.93 272.53 31.5 272.34C31.61 272.32 31.71 272.3 31.82 272.29C31.93 272.28 32.04 272.26 32.15 272.26C32.26 272.25 32.36 272.25 32.47 272.24C32.58 272.24 32.69 272.24 32.8 272.25L148.57 272.25C150.16 272.24 151.69 272.87 152.82 273.99C153.95 275.11 154.59 276.63 154.59 278.23C154.6 279.82 153.98 281.35 152.86 282.47C151.73 283.6 150.21 284.24 148.62 284.25L139.78 284.25C139.34 284.25 138.78 284.07 138.57 284.7C137.66 284.88 137.39 283.92 136.73 283.7C135.96 283.18 135.16 282.69 134.35 282.23C133.54 281.77 132.71 281.34 131.87 280.94C131.03 280.54 130.17 280.17 129.3 279.83C128.43 279.5 127.55 279.19 126.66 278.92C125.66 278.6 124.58 278.13 123.53 277.76C123 277.6 122.46 277.46 121.92 277.34C121.38 277.22 120.84 277.13 120.29 277.05C119.74 276.97 119.19 276.92 118.64 276.89C118.09 276.85 117.53 276.84 116.98 276.85C101.46 276.85 85.98 276.93 70.41 276.85C64.44 276.77 59.94 279 57 284.26Z" />
				<path id="Layer" class="shp23" d="M132 363.58L131.83 363.39C131.83 340 131.83 316.61 131.83 293.21C131.83 291.9 131.83 290.59 131.83 289.28C132.83 289.45 133.22 289.95 133.35 291.28C133.58 293.63 133.74 295.98 134 298.28C134.26 300.58 134.63 302.96 134.91 305.28C135.27 308.38 135.57 311.48 135.91 314.58C136.46 319.01 136.98 323.45 137.38 327.89C137.76 332.08 138.49 336.23 138.82 340.43C139.04 343.25 139.52 346.05 139.77 348.86C139.98 351.2 140.18 353.55 140.46 355.86C141.04 360.53 141.63 365.19 142.23 369.86C142.4 371.14 142.23 371.45 141.15 371.86C140.76 371.83 140.37 371.82 139.98 371.84C139.59 371.85 139.2 371.88 138.82 371.94C138.43 371.99 138.05 372.06 137.67 372.16C137.29 372.25 136.92 372.37 136.55 372.5C135.22 369.79 133.88 367.08 132.55 364.38C132.45 364.21 132.37 363.79 132 363.58Z" />
				<path id="Layer" class="shp24" d="M141.2 372C141.33 371.92 141.45 371.82 141.54 371.7C141.64 371.58 141.72 371.45 141.78 371.3C141.84 371.16 141.87 371.01 141.88 370.86C141.89 370.7 141.88 370.55 141.84 370.4C141.43 367.31 140.98 364.23 140.62 361.14C140.32 358.62 140.15 356.09 139.88 353.57C139.59 350.87 139.26 348.18 138.93 345.48C138.6 342.78 138.36 340.38 138.12 337.82C137.91 335.47 137.51 333.15 137.23 330.82C136.95 328.49 136.68 325.82 136.4 323.38C136.06 320.25 135.72 317.12 135.4 313.99C134.81 308.85 134.17 303.71 133.6 298.56C133.33 296.15 133.15 293.73 132.93 291.32C132.93 291.12 132.91 290.93 132.86 290.73C132.82 290.54 132.75 290.35 132.67 290.17C132.58 290 132.47 289.83 132.35 289.68C132.23 289.52 132.09 289.38 131.93 289.26C131.93 289.11 131.93 288.96 131.93 288.81C131.99 288.74 132.06 288.67 132.13 288.62C132.21 288.56 132.29 288.52 132.38 288.48C132.47 288.45 132.56 288.43 132.65 288.42C132.74 288.41 132.84 288.41 132.93 288.42C134.87 288.69 136.83 288.68 138.77 288.95C138.91 288.97 139.05 289 139.19 289.03C139.33 289.07 139.47 289.11 139.6 289.16C139.74 289.22 139.87 289.28 139.99 289.34C140.12 289.41 140.24 289.49 140.36 289.57C140.47 289.81 140.56 290.06 140.63 290.31C140.71 290.56 140.77 290.81 140.82 291.07C140.86 291.33 140.89 291.59 140.91 291.85C140.93 292.12 140.93 292.38 140.91 292.64C141.23 298.59 141.32 304.56 141.11 310.51C140.9 316.46 141.16 322.22 140.89 328.06C140.61 334.16 140.73 340.27 140.77 346.37C140.75 347.06 140.75 347.75 140.76 348.44C140.77 349.13 140.8 349.82 140.85 350.5C140.89 351.19 140.96 351.88 141.04 352.56C141.12 353.25 141.22 353.93 141.33 354.61C141.37 354.84 141.43 355.07 141.49 355.3C141.56 355.52 141.64 355.74 141.73 355.96C141.81 356.18 141.91 356.39 142.03 356.6C142.14 356.8 142.26 357.01 142.39 357.2C143.07 358.21 143.73 359.23 144.38 360.26C145.03 361.29 145.66 362.33 146.28 363.38C146.9 364.43 147.51 365.48 148.1 366.55C148.69 367.61 149.26 368.69 149.82 369.77C150.1 370.32 150.59 370.89 150.08 371.58C149.14 372.3 148.08 371.92 147 372.02L141.2 372Z" />
				<path id="Layer" class="shp5" d="M55.59 353.26C50.18 350.26 47.94 345.55 47.93 339.56C47.92 339.09 47.92 338.62 47.93 338.14C47.94 337.67 47.96 337.2 47.99 336.73C48.01 336.26 48.05 335.79 48.1 335.32C48.14 334.85 48.2 334.38 48.26 333.91C48.45 332.62 48.46 332.62 49.63 333.15L55.63 335.84L55.59 353.26Z" />
				<path id="Layer" class="shp25" d="M93.64 421.84L84.64 421.84C83.16 421.84 82.29 421.09 82.31 419.84C82.31 419.56 82.38 419.28 82.5 419.02C82.62 418.77 82.79 418.54 83.01 418.35C83.22 418.17 83.47 418.03 83.74 417.95C84.01 417.87 84.3 417.85 84.58 417.89C90.65 417.89 96.72 417.89 102.8 417.89C104.24 417.89 105.18 418.71 105.17 419.89C105.16 421.07 104.24 421.81 102.75 421.82L93.64 421.84Z" />
				<path id="Layer" class="shp5" d="M55.59 327.33C54.62 326.68 53.73 325.93 52.92 325.1C52.11 324.26 51.39 323.35 50.78 322.36C50.16 321.37 49.65 320.33 49.25 319.23C48.85 318.14 48.57 317.01 48.41 315.86C48.35 315.54 48.31 315.22 48.28 314.9C48.25 314.58 48.23 314.26 48.22 313.93C48.21 313.61 48.21 313.29 48.22 312.97C48.24 312.64 48.26 312.32 48.3 312C48.4 311.15 48.7 311 49.46 311.23C51.46 311.75 53.55 312.23 55.59 312.69L55.59 327.33Z" />
				<path id="Layer" class="shp5" d="M50.77 372C50.42 371.48 50.11 370.94 49.84 370.37C49.58 369.81 49.35 369.22 49.18 368.62C49 368.02 48.87 367.41 48.78 366.79C48.7 366.17 48.66 365.55 48.67 364.92C48.69 364.58 48.73 364.24 48.77 363.91C48.81 363.57 48.86 363.23 48.92 362.9C48.99 362.56 49.06 362.23 49.14 361.9C49.22 361.57 49.31 361.24 49.41 360.92C49.6 360.25 49.9 360.07 50.59 360.34C52.24 360.98 53.92 361.56 55.59 362.16C55.59 366.68 55.59 371.21 55.59 375.74C55.59 375.98 55.64 376.25 55.39 376.43C55.1 376.41 54.82 376.34 54.55 376.23C54.27 376.13 54.02 375.99 53.79 375.81C53.56 375.64 53.35 375.43 53.18 375.19C53.01 374.96 52.87 374.7 52.77 374.43C52.35 374 51.94 373.56 51.52 373.12L50.77 372Z" />
				<path id="Layer" class="shp26" d="M140.08 289.72C137.36 289.14 134.57 289.22 131.83 288.83C131.79 288.47 131.74 288.12 131.67 287.77C131.61 287.42 131.53 287.07 131.44 286.72C131.35 286.38 131.24 286.04 131.13 285.7C131.01 285.36 130.88 285.03 130.74 284.7C130.81 284.55 130.89 284.41 131 284.29C131.11 284.17 131.24 284.07 131.38 283.99C131.52 283.91 131.68 283.85 131.84 283.82C132 283.79 132.16 283.78 132.32 283.8C133.37 283.8 134.42 283.8 135.47 283.8C135.61 283.8 135.74 283.79 135.87 283.77C136.01 283.75 136.14 283.73 136.27 283.7C136.4 283.67 136.53 283.63 136.66 283.59C136.79 283.54 136.92 283.5 137.04 283.44C137.18 283.53 137.32 283.62 137.46 283.72C137.59 283.82 137.73 283.92 137.85 284.03C137.98 284.14 138.11 284.26 138.22 284.37C138.34 284.49 138.46 284.61 138.57 284.74C139.72 285.74 139.46 287.17 139.86 288.4C139.94 288.63 140 288.87 140.07 289.11C140.11 289.15 140.15 289.19 140.18 289.25C140.2 289.3 140.22 289.35 140.22 289.41C140.22 289.47 140.21 289.53 140.18 289.58C140.16 289.63 140.12 289.68 140.08 289.72L140.08 289.72Z" />
				<path id="Layer" class="shp27" d="M137 283.41C136.87 284.07 136.41 284.25 135.81 284.25C134.91 284.25 134.01 284.25 133.11 284.25C132.9 284.24 132.7 284.24 132.49 284.26C132.29 284.27 132.08 284.3 131.88 284.34C131.68 284.37 131.48 284.42 131.28 284.48C131.08 284.54 130.89 284.62 130.7 284.7C130.34 283.92 129.9 283.18 129.4 282.49C128.91 281.79 128.35 281.14 127.73 280.54C127.12 279.95 126.45 279.41 125.74 278.93C125.03 278.45 124.28 278.04 123.49 277.7C124.71 277.91 125.91 278.18 127.09 278.53C128.28 278.87 129.44 279.29 130.58 279.77C131.71 280.25 132.82 280.79 133.89 281.4C134.97 282.01 136 282.68 137 283.41Z" />
				<path id="Layer" class="shp28" d="M96.45 425.54C96.45 426.62 96.45 427.71 96.45 428.79L92.93 428.87L88.15 428.8C87.98 428.56 87.85 428.3 87.77 428.02C87.68 427.75 87.64 427.46 87.64 427.17C87.64 426.88 87.68 426.59 87.77 426.32C87.85 426.04 87.98 425.78 88.15 425.54L96.45 425.54Z" />
				<path id="Layer" class="shp29" d="M88.15 425.54C88.15 426.63 88.15 427.71 88.15 428.8L82.68 428.88L80.49 428.8C80.49 427.72 80.49 426.63 80.49 425.54L88.15 425.54Z" />
				<path id="Layer" class="shp1" d="M55.59 386C54.44 386 53.59 385.15 52.59 384.88C52.74 383.94 53.4 384.24 53.92 384.4C54.06 384.45 54.21 384.51 54.35 384.57C54.49 384.62 54.63 384.68 54.77 384.74C54.92 384.8 55.06 384.87 55.19 384.93C55.33 385 55.47 385.06 55.61 385.13L55.59 386Z" />
				<path id="Layer" class="shp1" d="M52.8 374.41L55.42 376.41C55.5 376.62 55.67 376.8 55.59 377.05C55.24 377.03 54.9 376.96 54.57 376.82C54.25 376.68 53.96 376.49 53.7 376.25C53.45 376.01 53.24 375.73 53.08 375.41C52.93 375.1 52.83 374.76 52.8 374.41Z" />
				<path id="Layer" class="shp6" d="M95.22 360.65C95.82 360.65 96.11 360.65 96.4 360.65C96.63 360.65 96.86 360.73 97.04 360.87C97.22 361.02 97.35 361.23 97.39 361.46C97.44 361.69 97.4 361.92 97.29 362.13C97.18 362.33 97 362.49 96.78 362.58C96.71 362.62 96.64 362.65 96.56 362.68C96.48 362.71 96.41 362.74 96.33 362.76C96.25 362.78 96.17 362.8 96.09 362.81C96.01 362.83 95.93 362.84 95.85 362.84C92.05 362.93 89.28 365.9 90.26 370.6C90.8 373.18 91.19 375.75 90.32 378.33C90.18 378.77 90.01 379.2 89.81 379.62C89.6 380.03 89.36 380.43 89.09 380.81C88.83 381.18 88.53 381.54 88.2 381.87C87.88 382.2 87.52 382.5 87.15 382.77C86.54 383.21 85.99 383.24 85.54 382.63C85.44 382.52 85.36 382.39 85.31 382.25C85.27 382.11 85.25 381.96 85.27 381.81C85.29 381.66 85.34 381.52 85.42 381.4C85.51 381.27 85.61 381.17 85.74 381.09C88.74 378.7 89.01 375.54 88.25 372.09C88.15 371.71 88.06 371.33 88 370.95C87.93 370.57 87.88 370.18 87.85 369.79C87.82 369.4 87.8 369.01 87.81 368.63C87.81 368.24 87.83 367.85 87.87 367.46C87.99 366.56 88.26 365.68 88.67 364.88C89.09 364.07 89.64 363.34 90.31 362.72C90.98 362.1 91.74 361.61 92.58 361.25C93.42 360.9 94.31 360.7 95.22 360.65L95.22 360.65Z" />
				<path id="Layer" class="shp6" d="M97.21 356.74C97.69 356.75 98.18 356.8 98.65 356.9C99.13 357 99.59 357.14 100.04 357.33C100.49 357.52 100.91 357.74 101.32 358.01C101.72 358.28 102.1 358.58 102.45 358.92C102.96 359.42 103.27 359.99 102.74 360.63C102.21 361.27 101.56 361.11 101.01 360.63C98.52 358.54 95.72 358.63 92.88 359.57C92.21 359.79 91.56 360.07 90.95 360.42C90.34 360.77 89.77 361.18 89.24 361.64C88.71 362.11 88.24 362.63 87.82 363.19C87.4 363.76 87.04 364.36 86.74 365C86.7 365.11 86.66 365.22 86.6 365.32C86.54 365.43 86.47 365.52 86.4 365.62C86.32 365.71 86.24 365.79 86.14 365.86C86.05 365.94 85.95 366 85.85 366.06C85.76 366.1 85.66 366.13 85.56 366.14C85.46 366.15 85.36 366.14 85.26 366.12C85.16 366.1 85.07 366.07 84.98 366.02C84.89 365.97 84.81 365.91 84.74 365.84C84.64 365.74 84.56 365.63 84.5 365.51C84.44 365.39 84.4 365.25 84.39 365.12C84.37 364.98 84.37 364.84 84.4 364.71C84.43 364.58 84.48 364.45 84.55 364.33C84.71 363.98 84.88 363.64 85.06 363.31C85.25 362.97 85.46 362.65 85.67 362.34C85.89 362.02 86.12 361.72 86.37 361.43C86.62 361.14 86.88 360.86 87.15 360.59C89.54 358.12 92.86 356.75 97.21 356.74Z" />
				<path id="Layer" class="shp6" d="M96.91 353.89C96.91 354.79 96.35 355.02 95.59 355.03C94.9 355.03 94.21 355.09 93.53 355.2C92.85 355.31 92.18 355.47 91.52 355.68C90.87 355.89 90.23 356.15 89.61 356.46C88.99 356.77 88.4 357.12 87.84 357.52C87.3 357.92 86.78 358.35 86.3 358.81C85.81 359.27 85.35 359.77 84.93 360.29C84.51 360.81 84.12 361.36 83.77 361.94C83.42 362.51 83.11 363.11 82.84 363.72C82.5 364.45 82.02 364.89 81.24 364.57C81.08 364.51 80.94 364.42 80.82 364.3C80.71 364.19 80.62 364.04 80.57 363.88C80.51 363.73 80.5 363.56 80.52 363.39C80.54 363.23 80.6 363.07 80.69 362.93C83.34 357.38 88.59 352.74 95.48 352.82C96.24 352.83 96.86 353 96.91 353.89Z" />
				<path id="Layer" class="shp6" d="M112 367.44C112 368.1 112 368.87 111 368.97C110.18 369.05 109.83 368.59 109.77 367.79C109.74 367.27 109.69 366.76 109.61 366.25C109.52 365.74 109.41 365.23 109.26 364.74C109.12 364.24 108.95 363.75 108.75 363.27C108.55 362.8 108.32 362.33 108.07 361.88C107.76 361.33 107.41 360.81 107.03 360.32C106.64 359.82 106.22 359.36 105.77 358.93C105.31 358.49 104.83 358.09 104.31 357.73C103.8 357.37 103.26 357.05 102.7 356.77C102.61 356.73 102.53 356.69 102.44 356.65C102.36 356.61 102.27 356.57 102.19 356.52C102.11 356.48 102.02 356.43 101.94 356.39C101.86 356.34 101.78 356.29 101.7 356.24C101.57 356.17 101.46 356.07 101.37 355.95C101.28 355.83 101.22 355.7 101.19 355.55C101.15 355.41 101.15 355.26 101.18 355.11C101.21 354.97 101.27 354.83 101.35 354.71C101.41 354.59 101.5 354.48 101.61 354.39C101.71 354.3 101.84 354.24 101.97 354.2C102.1 354.17 102.24 354.16 102.38 354.17C102.51 354.19 102.64 354.24 102.76 354.31C104.06 354.86 105.28 355.58 106.38 356.47C107.48 357.36 108.46 358.39 109.27 359.55C110.08 360.7 110.73 361.97 111.19 363.3C111.65 364.64 111.92 366.03 112 367.44L112 367.44Z" />
				<path id="Layer" class="shp6" d="M86.41 373.61C86.44 374.06 86.44 374.5 86.41 374.95C86.38 375.4 86.33 375.84 86.24 376.28C86.16 376.72 86.04 377.15 85.91 377.58C85.77 378 85.6 378.42 85.41 378.82C85.33 378.96 85.25 379.1 85.16 379.24C85.06 379.37 84.96 379.5 84.85 379.62C84.75 379.75 84.63 379.86 84.51 379.97C84.38 380.08 84.25 380.18 84.12 380.27C84.02 380.34 83.92 380.39 83.8 380.42C83.69 380.45 83.57 380.45 83.45 380.44C83.33 380.43 83.22 380.4 83.11 380.35C83.01 380.29 82.91 380.23 82.83 380.14C82.73 380.06 82.64 379.96 82.58 379.85C82.52 379.74 82.47 379.62 82.45 379.5C82.44 379.37 82.44 379.24 82.47 379.12C82.5 378.99 82.56 378.87 82.63 378.77C84.75 376.53 84.13 373.86 83.89 371.24C83.83 370.56 83.63 369.89 83.54 369.24C83.45 368.59 83.54 367.94 84.32 367.79C85.1 367.64 85.54 368.1 85.71 368.79C85.81 369.18 85.9 369.58 85.97 369.98C86.05 370.38 86.12 370.78 86.18 371.18C86.24 371.59 86.29 371.99 86.32 372.39C86.36 372.8 86.39 373.2 86.41 373.61L86.41 373.61Z" />
				<path id="Layer" class="shp6" d="M94.52 376.07C94.48 376.81 94.39 377.54 94.22 378.26C94.06 378.97 93.84 379.68 93.56 380.36C93.28 381.04 92.94 381.69 92.54 382.31C92.15 382.94 91.7 383.52 91.21 384.07C90.69 384.65 90.03 385.07 89.34 384.39C88.65 383.71 88.96 383.15 89.5 382.57C89.92 382.11 90.3 381.61 90.64 381.08C90.97 380.55 91.26 379.99 91.5 379.41C91.74 378.83 91.93 378.23 92.06 377.62C92.2 377.01 92.28 376.39 92.31 375.76C92.31 375.7 92.31 375.63 92.31 375.57C92.32 375.51 92.32 375.44 92.33 375.38C92.33 375.31 92.34 375.25 92.35 375.19C92.36 375.13 92.37 375.06 92.38 375C92.54 374.39 92.87 373.93 93.59 374C94.31 374.07 94.59 374.56 94.59 375.2C94.59 375.27 94.59 375.35 94.58 375.42C94.58 375.49 94.58 375.56 94.57 375.64C94.56 375.71 94.56 375.78 94.55 375.85C94.54 375.93 94.53 376 94.52 376.07L94.52 376.07Z" />
				<path id="Layer" class="shp6" d="M82.47 367.86C82.38 368.35 82.32 368.84 82.28 369.33C82.24 369.83 82.23 370.32 82.25 370.82C82.26 371.31 82.3 371.8 82.37 372.29C82.44 372.78 82.54 373.27 82.66 373.75C82.7 373.88 82.71 374.01 82.7 374.14C82.69 374.27 82.65 374.4 82.59 374.51C82.53 374.63 82.44 374.73 82.34 374.81C82.24 374.9 82.13 374.96 82 375C81.87 375.07 81.72 375.1 81.57 375.11C81.42 375.11 81.27 375.08 81.13 375.01C80.99 374.95 80.87 374.86 80.78 374.74C80.68 374.62 80.62 374.49 80.58 374.34C80.41 373.77 80.28 373.18 80.19 372.59C80.09 372 80.04 371.41 80.02 370.81C80.01 370.21 80.03 369.61 80.09 369.02C80.15 368.42 80.25 367.83 80.39 367.25C80.5 366.63 81.08 366.43 81.68 366.55C82.28 366.67 82.49 367.3 82.47 367.86Z" />
				<path id="Layer" class="shp21" d="M140.08 289.72C140.08 289.51 140.08 289.29 140.08 289.08C140.84 289.06 141.6 289.04 142.37 289.04C143.13 289.03 143.89 289.04 144.65 289.05C145.41 289.07 146.18 289.09 146.94 289.13C147.7 289.16 148.46 289.21 149.22 289.26C149.93 289.33 150.63 289.53 151.27 289.85C151.91 290.17 152.49 290.61 152.98 291.14C153.46 291.67 153.85 292.29 154.11 292.95C154.37 293.62 154.51 294.33 154.52 295.05C154.52 297.66 154.52 300.28 154.52 302.9C154.52 323.69 154.52 344.49 154.52 365.28C154.52 368.28 153.4 370.38 150.72 371.68C150.68 371.71 150.65 371.73 150.61 371.76C150.58 371.79 150.54 371.82 150.51 371.85C150.48 371.88 150.45 371.91 150.42 371.95C150.39 371.98 150.36 372.01 150.33 372.05L149.93 371.6C149.51 370.7 149.07 369.82 148.62 368.93C148.17 368.05 147.71 367.18 147.23 366.31C146.76 365.44 146.27 364.58 145.76 363.73C145.26 362.88 144.74 362.04 144.21 361.2C144.09 360.98 143.96 360.76 143.83 360.54C143.7 360.32 143.57 360.1 143.43 359.89C143.29 359.68 143.15 359.47 143.01 359.26C142.86 359.05 142.71 358.84 142.56 358.64C140.76 356.46 140.42 353.89 140.29 351.2C139.97 344.4 139.99 337.6 140.16 330.81C140.3 324.92 140.16 319.03 140.36 313.14C140.42 311.14 140.49 309.07 140.51 307.04C140.59 301.26 140.45 295.49 140.08 289.72Z" />
				<path id="Layer" class="shp1" d="M144.69 393.88L153.85 393.88C153.79 393.92 153.73 393.96 153.66 393.99C153.6 394.02 153.53 394.04 153.46 394.06C153.39 394.08 153.32 394.09 153.25 394.09C153.17 394.1 153.1 394.1 153.03 394.09L145.52 394.09C145.45 394.1 145.37 394.1 145.3 394.09C145.23 394.09 145.16 394.08 145.09 394.06C145.02 394.04 144.95 394.02 144.88 393.99C144.81 393.96 144.75 393.92 144.69 393.88L144.69 393.88Z" />
				<path id="Layer" class="shp30" d="M218.68 302.13C219.35 303.41 219.91 304.74 220.34 306.11C220.78 307.48 221.1 308.89 221.28 310.32C221.47 311.75 221.53 313.19 221.47 314.63C221.4 316.07 221.21 317.5 220.89 318.91C220.63 320.08 220.29 321.23 219.87 322.35C219.44 323.47 218.94 324.56 218.35 325.6C217.77 326.65 217.11 327.65 216.38 328.6C215.66 329.55 214.86 330.45 214 331.28C213.22 332.06 212.4 332.78 211.52 333.45C210.64 334.11 209.72 334.71 208.76 335.25C207.8 335.78 206.8 336.25 205.77 336.64C204.75 337.03 203.69 337.35 202.62 337.6C192.96 339.8 184.68 337.12 178.06 329.85C177.08 328.77 176.2 327.61 175.44 326.37C174.68 325.13 174.03 323.82 173.51 322.46C172.99 321.1 172.6 319.69 172.35 318.26C172.09 316.83 171.97 315.38 171.98 313.92C171.98 313.07 172.02 312.22 172.1 311.37C172.17 310.52 172.29 309.68 172.44 308.84C172.59 308 172.77 307.17 172.99 306.35C173.22 305.53 173.48 304.72 173.77 303.92C174.24 303.72 174.54 304.02 174.77 304.31C177.38 307.15 179.92 310.04 182.5 312.9C184.18 314.76 185.85 316.62 187.5 318.49C188.7 319.81 189.92 321.1 191.07 322.49C191.46 323.02 191.96 323.45 192.54 323.77C193.12 324.08 193.77 324.26 194.42 324.29C195.08 324.32 195.74 324.21 196.34 323.96C196.95 323.71 197.5 323.33 197.94 322.84C201.62 319.26 205.12 315.51 208.67 311.84C211.51 308.84 214.49 306.04 217.2 302.96C217.59 302.47 218 301.94 218.68 302.13Z" />
				<path id="Layer" class="shp6" d="M172.27 300C172.23 299.79 172.2 299.57 172.17 299.36C172.15 299.14 172.14 298.93 172.14 298.71C172.14 298.49 172.15 298.28 172.17 298.06C172.2 297.85 172.23 297.63 172.27 297.42C172.46 296.85 172.78 296.34 173.21 295.93C173.64 295.51 174.17 295.21 174.74 295.04C175.31 294.87 175.92 294.85 176.5 294.96C177.09 295.08 177.64 295.34 178.1 295.71L178.75 296.28C178.87 296.31 178.99 296.34 179.1 296.38C179.21 296.43 179.33 296.48 179.43 296.54C179.54 296.6 179.64 296.67 179.73 296.75C179.83 296.83 179.92 296.91 180 297C183 300.43 186.14 303.79 189.2 307.19C190.48 308.62 191.72 310.1 193.12 311.43C194.37 312.61 195.33 312.6 196.62 311.43C198.3 309.87 199.72 308.06 201.36 306.43C204.91 302.98 208.17 299.26 211.73 295.83C211.82 295.72 211.92 295.61 212.03 295.51C212.14 295.42 212.25 295.33 212.37 295.25C212.49 295.17 212.62 295.1 212.75 295.03C212.88 294.97 213.02 294.92 213.16 294.88L230.03 277.54C230.41 277.15 230.79 276.75 231.18 276.37C231.45 276.05 231.78 275.78 232.14 275.56C232.5 275.35 232.9 275.2 233.31 275.12C233.72 275.04 234.14 275.03 234.56 275.09C234.98 275.15 235.38 275.28 235.75 275.48C237.08 276.14 237.75 277.56 237.59 279.48C237.59 279.77 237.55 280.06 237.49 280.34C237.43 280.62 237.33 280.89 237.21 281.16C237.09 281.42 236.94 281.67 236.77 281.9C236.6 282.13 236.41 282.35 236.19 282.54C231.19 287.67 226.19 292.91 221.19 298.01C220.96 298.28 220.72 298.54 220.48 298.79C220.23 299.05 219.99 299.31 219.74 299.56C219.49 299.81 219.23 300.05 218.97 300.3C218.72 300.54 218.46 300.78 218.19 301.01C215.88 303.36 213.7 305.85 211.35 308.17C207.63 311.85 204.14 315.75 200.35 319.38C199.75 319.96 199.35 320.67 198.69 321.25C196.11 323.67 193.13 323.69 190.69 321.16C187.9 318.26 185.26 315.21 182.54 312.24C180.17 309.63 177.84 307 175.44 304.42C174.6 303.51 173.84 302.54 172.97 301.66C172.87 301.54 172.78 301.42 172.7 301.29C172.63 301.16 172.56 301.02 172.5 300.88C172.44 300.74 172.39 300.6 172.35 300.45C172.31 300.3 172.29 300.15 172.27 300Z" />
				<path id="Layer" class="shp30" d="M213.2 294.93C210.89 297.35 208.59 299.77 206.27 302.18C203.19 305.37 200.1 308.55 197 311.71C195.49 313.26 194.15 313.27 192.71 311.71C188.11 306.67 183.52 301.61 178.94 296.54C178.92 296.52 178.91 296.5 178.89 296.48C178.88 296.45 178.86 296.43 178.85 296.41C178.83 296.39 178.82 296.36 178.81 296.34C178.79 296.32 178.78 296.29 178.77 296.27C179.3 295.74 179.86 295.23 180.44 294.75C181.01 294.26 181.61 293.8 182.22 293.37C182.84 292.93 183.47 292.52 184.12 292.14C184.77 291.75 185.43 291.4 186.11 291.07C187.7 290.31 189.37 289.72 191.08 289.32C192.8 288.91 194.56 288.7 196.32 288.67C198.08 288.65 199.84 288.81 201.57 289.17C203.3 289.52 204.98 290.06 206.59 290.78C207.19 291.04 207.77 291.33 208.35 291.63C208.93 291.94 209.49 292.27 210.05 292.61C210.6 292.96 211.14 293.33 211.67 293.71C212.19 294.1 212.7 294.51 213.2 294.93L213.2 294.93Z" />
				<path id="Layer" class="shp1" d="M90.66 264.82L33 264.82C32.34 264.86 31.68 264.8 31.03 264.65C30.39 264.49 29.77 264.24 29.2 263.9C28.64 263.56 28.12 263.14 27.68 262.65C27.23 262.16 26.87 261.6 26.59 261C26.29 260.42 26.08 259.8 25.96 259.17C25.84 258.53 25.81 257.88 25.87 257.23C25.93 256.58 26.08 255.95 26.31 255.35C26.55 254.74 26.87 254.17 27.27 253.66C28.7 251.66 30.82 251 33.16 250.84C33.52 250.84 33.88 250.84 34.25 250.84L134.11 250.84C138.69 250.84 143.27 250.77 147.85 250.84C148.45 250.81 149.05 250.85 149.64 250.97C150.23 251.08 150.8 251.27 151.35 251.52C151.89 251.78 152.4 252.1 152.87 252.47C153.34 252.85 153.76 253.28 154.12 253.76C154.73 254.62 155.14 255.6 155.31 256.63C155.49 257.67 155.43 258.73 155.14 259.74C154.86 260.74 154.35 261.68 153.65 262.46C152.95 263.25 152.09 263.86 151.12 264.27C150.9 264.36 150.68 264.44 150.46 264.5C150.23 264.57 150 264.63 149.77 264.67C149.54 264.72 149.31 264.75 149.07 264.77C148.84 264.79 148.6 264.8 148.37 264.8L90.66 264.82Z" />
				<path id="Layer" class="shp31" d="M172.27 300C172.66 300.52 173.06 301.04 173.47 301.55C173.88 302.06 174.3 302.56 174.73 303.05C175.15 303.55 175.59 304.04 176.03 304.51C176.48 304.99 176.93 305.47 177.39 305.93C181.54 310.59 185.76 315.19 189.96 319.81C190.5 320.4 191.06 320.98 191.65 321.52C192.09 321.92 192.6 322.23 193.16 322.44C193.72 322.64 194.31 322.74 194.91 322.72C195.5 322.7 196.09 322.56 196.63 322.32C197.17 322.08 197.67 321.74 198.08 321.31C201.02 318.41 203.85 315.37 206.73 312.39C207.11 312 207.46 311.58 207.85 311.21C211.35 307.87 214.47 304.16 218.02 300.87C218.66 300.99 218.86 301.38 218.71 301.99C218.71 302 218.71 302.02 218.7 302.03C218.7 302.05 218.7 302.06 218.7 302.08C218.7 302.09 218.7 302.1 218.7 302.12C218.71 302.13 218.71 302.15 218.71 302.16L207.87 313.35C204.78 316.53 201.69 319.71 198.61 322.89C196.06 325.51 193.14 325.4 190.71 322.68C185.23 316.56 179.74 310.45 174.24 304.36C174.2 304.32 174.16 304.28 174.13 304.25C174.09 304.21 174.05 304.17 174.01 304.14C173.97 304.1 173.93 304.07 173.89 304.03C173.84 304 173.8 303.96 173.76 303.93C172.81 302.75 171.91 301.59 172.27 300Z" />
				<path id="Layer" class="shp32" d="M218.71 302L218.02 300.88C219.02 299.81 219.95 298.71 220.96 297.67C224.79 293.73 228.63 289.82 232.46 285.89C233.86 284.45 235.21 282.99 236.61 281.55C236.74 281.41 236.85 281.26 236.96 281.11C237.07 280.95 237.16 280.79 237.25 280.62C237.33 280.45 237.4 280.28 237.46 280.1C237.53 279.92 237.57 279.74 237.61 279.55C238.16 282.22 236.41 283.81 234.82 285.46C231.23 289.17 227.61 292.84 224.04 296.56C222.29 298.35 220.61 300.26 218.71 302Z" />
				<path id="Layer" class="shp1" d="M52.41 384.94C52.27 385.25 52.14 385.57 52.02 385.88C51.9 386.2 51.79 386.53 51.69 386.85C51.59 387.18 51.51 387.51 51.43 387.84C51.36 388.18 51.29 388.51 51.24 388.85C51.1 388.85 50.88 388.85 50.84 388.73C50.3 387.67 50.97 386.73 51.14 385.73C51.25 385.08 51.81 384.91 52.41 384.94Z" />
				<path id="Layer" class="shp1" d="M52.31 394.07L51.47 394.07C51.38 393.86 51.29 393.65 51.21 393.44C51.13 393.23 51.06 393.02 50.99 392.8C50.92 392.59 50.86 392.37 50.8 392.15C50.75 391.93 50.7 391.71 50.65 391.49C50.59 390.98 50.65 390.49 51.22 390.39C51.28 390.71 51.34 391.02 51.42 391.33C51.49 391.64 51.58 391.95 51.67 392.26C51.76 392.57 51.86 392.87 51.96 393.17C52.07 393.48 52.19 393.77 52.31 394.07Z" />
				<path id="Layer" class="shp21" d="M90.67 264L32.83 264C31.61 264.01 30.42 263.64 29.41 262.96C28.4 262.27 27.62 261.3 27.17 260.16C26.72 259.03 26.63 257.78 26.9 256.6C27.18 255.41 27.8 254.33 28.7 253.5C28.96 253.26 29.24 253.04 29.53 252.85C29.83 252.66 30.15 252.49 30.48 252.36C30.81 252.23 31.15 252.13 31.49 252.07C31.84 252 32.2 251.97 32.55 251.97C71.22 251.97 109.88 251.97 148.55 251.97C149.33 251.96 150.11 252.1 150.84 252.4C151.56 252.69 152.22 253.13 152.78 253.68C153.33 254.24 153.77 254.9 154.06 255.62C154.36 256.35 154.5 257.13 154.49 257.91C154.5 258.7 154.35 259.49 154.05 260.23C153.76 260.96 153.32 261.63 152.76 262.2C152.2 262.76 151.53 263.21 150.8 263.52C150.07 263.82 149.28 263.98 148.49 263.98L90.67 264Z" />
			</g>
			<path id="Layer" class="shp33" d="M255.67 243C262.67 246.87 270.5 247.9 278.49 248.79C262 264.73 233.99 262.53 219.19 244.29C215.55 239.81 211.82 235.35 209.12 230.21C206.42 225.07 204.12 219.99 201.83 214.63C205.78 219.8 211.2 220.5 216.99 220.09C218.17 220.01 219.34 219.89 220.52 219.74C221.69 219.59 222.86 219.41 224.02 219.2C225.18 218.99 226.34 218.74 227.49 218.47C228.64 218.19 229.78 217.89 230.91 217.55C235.54 216.15 240.37 215.59 245.2 215.88C250.02 216.18 254.75 217.33 259.17 219.28C263.59 221.23 267.63 223.95 271.1 227.32C274.57 230.68 277.41 234.64 279.49 239C281.11 242.38 278.68 242.16 277.01 242.36C270.01 243.23 263.01 241.84 256.07 241.24C254.77 241.57 254.3 242.07 255.67 243Z" />
			<path id="Layer" class="shp34" d="M293 454.33C301.51 459.01 310.93 460.26 320.6 461.33C300.6 480.62 266.77 477.95 248.88 455.9C244.47 450.47 239.96 445.08 236.69 438.9C233.42 432.72 230.61 426.54 227.87 420.05C232.65 426.3 239.21 427.16 246.21 426.65C247.64 426.55 249.06 426.41 250.48 426.23C251.9 426.05 253.31 425.83 254.71 425.58C256.12 425.32 257.52 425.03 258.91 424.69C260.3 424.36 261.68 423.99 263.05 423.58C268.65 421.89 274.5 421.21 280.34 421.57C286.17 421.93 291.9 423.33 297.25 425.7C302.59 428.06 307.48 431.36 311.67 435.44C315.86 439.51 319.3 444.3 321.81 449.58C323.81 453.66 320.81 453.39 318.81 453.64C310.31 454.64 301.92 453.01 293.49 452.29C291.91 452.62 291.34 453.22 293 454.33Z" />
			<path id="Layer" class="shp35" d="M105.8 218.33C112.24 223.12 119.8 225.21 127.61 227.17C109.1 240.72 81.61 234.72 69.48 214.64C66.48 209.7 63.4 204.77 61.42 199.31C59.44 193.85 57.83 188.5 56.33 182.88C59.54 188.54 64.81 189.98 70.6 190.35C71.78 190.43 72.96 190.48 74.14 190.49C75.32 190.51 76.51 190.49 77.69 190.44C78.87 190.39 80.05 190.3 81.22 190.19C82.4 190.07 83.57 189.92 84.74 189.74C89.51 188.99 94.39 189.09 99.12 190.04C103.86 190.99 108.39 192.78 112.51 195.32C116.62 197.86 120.25 201.11 123.22 204.92C126.19 208.73 128.47 213.04 129.93 217.65C131.08 221.21 128.7 220.65 127.02 220.65C119.93 220.55 113.25 218.23 106.43 216.65C105.1 216.8 104.57 217.23 105.8 218.33Z" />
			<path id="Layer" class="shp36" d="M126.86 134.22C129.74 141.71 135.03 147.53 140.57 153.35C117.68 154.91 97.69 135.16 98.14 111.68C98.25 105.91 98.27 100.09 99.52 94.42C100.77 88.75 102.27 83.42 104 77.81C103.68 84.31 107.37 88.35 112.07 91.81C113.02 92.5 114 93.17 114.99 93.81C115.98 94.45 116.99 95.07 118.02 95.65C119.04 96.23 120.08 96.79 121.14 97.32C122.2 97.84 123.27 98.34 124.35 98.81C128.79 100.73 132.85 103.42 136.34 106.76C139.84 110.09 142.71 114.03 144.83 118.37C146.95 122.72 148.28 127.41 148.75 132.22C149.23 137.03 148.85 141.88 147.62 146.56C146.68 150.18 144.97 148.45 143.55 147.56C137.62 143.68 133.21 138.15 128.27 133.2C127.09 132.55 126.41 132.63 126.86 134.22Z" />
			<path id="Layer" class="shp37" d="M46.69 61.53C49.05 68.73 53.76 74.45 58.69 80.19C37.06 80.59 19.16 61.06 20.69 38.97C21.07 33.54 21.36 28.06 22.8 22.78C24.24 17.5 25.9 12.5 27.8 7.35C27.2 13.45 30.48 17.42 34.8 20.86C35.66 21.56 36.55 22.24 37.45 22.89C38.35 23.54 39.27 24.17 40.2 24.77C41.14 25.37 42.09 25.94 43.06 26.49C44.02 27.04 45 27.56 46 28.06C50.09 30.07 53.78 32.8 56.92 36.11C60.05 39.41 62.57 43.25 64.36 47.44C66.15 51.63 67.18 56.11 67.4 60.66C67.62 65.21 67.03 69.77 65.66 74.11C64.66 77.48 63.08 75.77 61.79 74.83C56.38 70.91 52.49 65.49 48.07 60.6C47 60 46.34 60 46.69 61.53Z" />
		</g>
	</g>
</svg>