<svg version="1.2" baseProfile="tiny-ps" xmlns="http://www.w3.org/2000/svg" viewBox="0 0 1601 503" width="1601" height="503">
	<title>homePageBanner-svg</title>
	<defs>
		<linearGradient id="grd1" gradientUnits="userSpaceOnUse"  x1="0" y1="250" x2="1600" y2="250">
			<stop offset="0" stop-color="#e9f5ef"  />
			<stop offset="0.05" stop-color="#d2dfcc"  />
			<stop offset="0.08" stop-color="#ccdbc5"  />
			<stop offset="0.3" stop-color="#a7c295"  />
			<stop offset="0.51" stop-color="#8aaf70"  />
			<stop offset="0.7" stop-color="#75a155"  />
			<stop offset="0.87" stop-color="#689845"  />
			<stop offset="1" stop-color="#64953f"  />
			<stop offset="1" stop-color="#8ccfb5"  />
		</linearGradient>
		<linearGradient id="grd2" gradientUnits="userSpaceOnUse"  x1="214.21" y1="447.09" x2="267.5" y2="447.09">
			<stop offset="0.08" stop-color="#e9f5ef"  />
			<stop offset="0.2" stop-color="#e0efde"  />
			<stop offset="0.44" stop-color="#c9deb3"  />
			<stop offset="0.6" stop-color="#b8d292"  />
			<stop offset="0.99" stop-color="#9cc25e"  />
		</linearGradient>
		<linearGradient id="grd3" gradientUnits="userSpaceOnUse"  x1="-28063.919" y1="90117.45" x2="-25423.56" y2="90117.45">
			<stop offset="0.08" stop-color="#e9f5ef"  />
			<stop offset="0.2" stop-color="#e0efde"  />
			<stop offset="0.44" stop-color="#c9deb3"  />
			<stop offset="0.6" stop-color="#b8d292"  />
			<stop offset="0.99" stop-color="#9cc25e"  />
		</linearGradient>
		<linearGradient id="grd4" gradientUnits="userSpaceOnUse"  x1="-36709.905" y1="82661.017" x2="-33890.354" y2="82661.017">
			<stop offset="0.08" stop-color="#e9f5ef"  />
			<stop offset="0.2" stop-color="#e0efde"  />
			<stop offset="0.44" stop-color="#c9deb3"  />
			<stop offset="0.6" stop-color="#b8d292"  />
			<stop offset="0.99" stop-color="#9cc25e"  />
		</linearGradient>
		<linearGradient id="grd5" gradientUnits="userSpaceOnUse"  x1="-37382.494" y1="74627.719" x2="-34222.569" y2="74627.719">
			<stop offset="0.08" stop-color="#e9f5ef"  />
			<stop offset="0.2" stop-color="#e0efde"  />
			<stop offset="0.44" stop-color="#c9deb3"  />
			<stop offset="0.6" stop-color="#b8d292"  />
			<stop offset="0.99" stop-color="#9cc25e"  />
		</linearGradient>
		<linearGradient id="grd6" gradientUnits="userSpaceOnUse"  x1="-35229.765" y1="69653.497" x2="-32071.47" y2="69653.497">
			<stop offset="0.08" stop-color="#e9f5ef"  />
			<stop offset="0.2" stop-color="#e0efde"  />
			<stop offset="0.44" stop-color="#c9deb3"  />
			<stop offset="0.6" stop-color="#b8d292"  />
			<stop offset="0.99" stop-color="#9cc25e"  />
		</linearGradient>
		<linearGradient id="grd7" gradientUnits="userSpaceOnUse"  x1="-31485.945" y1="57520.218" x2="-29310.906" y2="57520.218">
			<stop offset="0.08" stop-color="#e9f5ef"  />
			<stop offset="0.2" stop-color="#e0efde"  />
			<stop offset="0.44" stop-color="#c9deb3"  />
			<stop offset="0.6" stop-color="#b8d292"  />
			<stop offset="0.99" stop-color="#9cc25e"  />
		</linearGradient>
		<linearGradient id="grd8" gradientUnits="userSpaceOnUse"  x1="-55805.552" y1="134452.051" x2="-49015.147" y2="134452.051">
			<stop offset="0.08" stop-color="#e9f5ef"  />
			<stop offset="0.2" stop-color="#e0efde"  />
			<stop offset="0.44" stop-color="#c9deb3"  />
			<stop offset="0.6" stop-color="#b8d292"  />
			<stop offset="0.99" stop-color="#9cc25e"  />
		</linearGradient>
	</defs>
	<style>
		tspan { white-space:pre }
		.shp0 { fill: url(#grd1) } 
		.shp1 { fill: #ffffff } 
		.shp2 { fill: #000101 } 
		.shp3 { fill: #8ccfb5 } 
		.shp4 { fill: #f2f9f5 } 
		.shp5 { fill: none } 
		.shp6 { fill: url(#grd2) } 
		.shp7 { fill: url(#grd3) } 
		.shp8 { fill: url(#grd4) } 
		.shp9 { fill: url(#grd5) } 
		.shp10 { fill: url(#grd6) } 
		.shp11 { fill: url(#grd7) } 
		.shp12 { fill: url(#grd8) } 
	</style>
	<g id="图层_2">
		<g id="Layer_3">
			<path id="Rectangle_971" class="shp0" d="M0 0L1600 0L1600 500L0 500L0 0Z" />
			<g id="Layer" style="opacity: 0.549">
				<path id="Layer" class="shp1" d="M1600 46.83C1600 56.25 1599.84 61.71 1599.81 70.03C1599.64 116.31 1599.73 162.59 1599.73 208.88C1599.73 245.46 1599.89 282.05 1599.97 318.63C1599.97 327.84 1600.03 337.04 1599.97 346.25C1599.97 355.92 1599.16 357.92 1591.82 364.25C1584.96 370.19 1578.08 376.12 1571.19 382.03C1557.41 393.86 1543.58 405.62 1529.69 417.32C1501.92 440.72 1473.92 463.87 1445.69 486.77C1433.97 496.29 1420.69 505.58 1404.52 500.62C1398.09 498.62 1392.24 495.2 1386.45 491.79L1195.4 379.12C1187.4 374.38 1178.93 370.81 1175.04 361.69C1171.67 353.8 1172.3 344.69 1172.15 336.31L1171.15 280.96L1169.22 170.27C1169.22 149.27 1168.48 128.2 1168.11 107.18C1167.77 87.55 1167.59 67.51 1174.76 48.89C1181.76 30.89 1201.21 19.42 1218.76 13.07C1249.76 1.84 1283.16 1.14 1315.76 1.07C1389.21 0.83 1462.65 0.57 1536.08 0.29C1557.41 0.22 1578.69 0 1600 0" />
				<path id="Layer" class="shp2" d="M1279.45 59C1295.36 70.21 1307.85 80.29 1307.39 99.51C1306.86 121.76 1295.34 138.18 1273.79 144.51C1254.32 150.22 1232.79 142.39 1222.02 125.68C1210.75 108.21 1212.75 85.32 1227.83 69.49C1247.91 48.41 1274.19 46 1301.15 46.79C1339.5 47.91 1376.44 58.36 1414.07 64.23C1434.73 67.45 1455.49 71.23 1476.31 72C1516.01 73.51 1552.71 66.24 1575.82 26.74C1583.98 64.61 1582.32 100.83 1560.54 132.35C1535.54 168.61 1499.4 161.86 1462.83 149.75C1462.83 171.17 1463.1 190.89 1462.69 210.6C1462.54 218.32 1465.69 220.55 1472.9 222.6C1501.03 230.55 1525.06 223.6 1546.72 205.19C1549.33 202.96 1551.41 198.36 1555.6 200C1560.81 202 1559.3 207.38 1558.94 211.36C1554.77 258.36 1529 290.06 1475.5 278.71C1471.91 277.95 1468.27 277.46 1462.83 276.53L1462.83 367.47C1462.83 397.91 1458.83 403.24 1427.35 413.87C1424.1 408.24 1425.88 402.06 1425.87 396.23C1425.72 312.9 1425.67 229.56 1425.72 146.23C1425.72 138.1 1428.58 128.1 1414.38 126.23L1414.38 250.13C1414.38 297.04 1413.9 343.96 1414.71 390.86C1414.93 403.3 1409.94 407.86 1399.15 411.2C1388.15 414.6 1377.24 414.56 1366.21 414.2C1339.05 413.3 1330.06 400.2 1336.66 373.46C1338.44 366.26 1342.4 369.14 1346.15 369.07C1379.79 368.4 1396.25 352.63 1396.99 319.47C1398.07 271.47 1382.68 229.83 1346.44 197.47C1339.5 191.27 1337.55 185.47 1337.64 177.01C1337.98 145.53 1337.44 114.01 1338 82.56C1338.15 73.77 1335.53 68.72 1327.07 66.69C1312.42 63.15 1298.09 57.63 1279.45 59Z" />
				<path id="Layer" class="shp3" d="M1307 296C1320.52 320.83 1341.67 338.66 1363.67 356.43C1284.54 372.43 1205.67 312.78 1196.41 230.67C1194.13 210.46 1191.52 190.17 1193.26 169.82C1194.96 149.82 1197.72 129.98 1201.2 109.82C1203.1 132.65 1217.83 145.02 1235.79 154.76C1239.44 156.75 1243.15 158.64 1246.9 160.43C1250.66 162.21 1254.47 163.9 1258.31 165.48C1262.16 167.05 1266.05 168.52 1269.98 169.89C1273.91 171.25 1277.88 172.51 1281.88 173.65C1298.25 178.28 1313.66 185.79 1327.39 195.82C1341.13 205.85 1352.97 218.24 1362.37 232.42C1371.77 246.6 1378.56 262.34 1382.45 278.89C1386.33 295.45 1387.24 312.57 1385.13 329.45C1383.54 342.54 1376.74 337.27 1371.4 334.71C1348.91 323.95 1330.98 306.71 1311.4 291.71C1307 290.12 1304.7 290.7 1307 296Z" />
				<path id="Layer" class="shp4" d="M1307 296C1303.13 293 1301.08 288.88 1299.89 282.46C1306.29 283.29 1308.63 287.82 1311.45 291.65L1307 296Z" />
			</g>
			<path id="Layer" class="shp5" d="M0 0L1600 0L1600 500L0 500L0 0Z" />
		</g>
		<g id="Layer_6">
			<path id="Layer" class="shp6" d="M244.6 466.13C247.8 473.8 253.44 479.65 259.33 485.52C235.71 487.8 214.47 467.97 214.24 443.68C214.19 437.68 214.04 431.68 215.17 425.79C216.3 419.9 217.68 414.28 219.31 408.48C219.17 415.21 223.1 419.28 228.06 422.67C229.07 423.36 230.09 424.03 231.14 424.66C232.18 425.3 233.24 425.91 234.32 426.48C235.4 427.06 236.49 427.61 237.6 428.13C238.7 428.65 239.83 429.13 240.96 429.59C245.61 431.44 249.88 434.1 253.6 437.45C257.31 440.8 260.4 444.78 262.72 449.21C265.03 453.64 266.55 458.45 267.18 463.41C267.81 468.37 267.56 473.4 266.43 478.27C265.57 482.05 263.74 480.27 262.25 479.39C256 475.56 251.29 470 246 465C244.79 464.41 244.09 464.51 244.6 466.13Z" />
			<path id="Layer" class="shp7" d="M173.53 359.83C176.53 366.99 181.78 372.45 187.28 377.92C165.28 380.05 145.4 361.54 145.19 338.87C145.14 333.29 145 327.68 146.06 322.17C147.12 316.66 148.4 311.43 149.92 306.02C149.8 312.3 153.46 316.09 158.09 319.26C159.03 319.91 159.98 320.53 160.95 321.12C161.92 321.71 162.91 322.28 163.91 322.82C164.91 323.36 165.93 323.87 166.96 324.36C167.99 324.84 169.03 325.29 170.09 325.72C174.43 327.45 178.42 329.93 181.89 333.05C185.35 336.18 188.24 339.9 190.4 344.03C192.56 348.17 193.97 352.66 194.56 357.29C195.15 361.92 194.92 366.61 193.86 371.16C193.06 374.69 191.35 373.06 189.97 372.16C184.13 368.58 179.73 363.36 174.82 358.72C173.7 358.22 173.05 358.31 173.53 359.83Z" />
			<path id="Layer" class="shp8" d="M55.83 305.7C59.54 312.51 65.34 317.41 71.38 322.28C49.67 326.67 28.03 310.28 25.49 287.78C24.86 282.23 24.14 276.67 24.62 271.08C25.1 265.49 25.85 260.15 26.8 254.61C27.32 260.87 31.36 264.27 36.29 266.94C37.29 267.49 38.31 268 39.34 268.49C40.37 268.98 41.42 269.45 42.47 269.88C43.53 270.31 44.6 270.71 45.68 271.09C46.75 271.46 47.84 271.81 48.94 272.12C53.43 273.39 57.66 275.45 61.43 278.21C65.19 280.96 68.44 284.36 71.02 288.25C73.6 292.14 75.46 296.46 76.53 301C77.6 305.54 77.85 310.24 77.27 314.87C76.83 318.46 74.97 317.02 73.5 316.32C67.33 313.32 62.41 308.62 57.05 304.51C55.84 304.08 55.2 304.24 55.83 305.7Z" />
			<path id="Layer" class="shp9" d="M105 223.61C109.45 230.2 115.85 234.61 122.49 239C100.77 245.62 77.09 231 72.28 208.3C71.1 202.71 69.82 197.1 69.76 191.3C69.7 185.5 69.94 180.03 70.37 174.3C71.51 180.64 75.97 183.7 81.26 185.94C82.34 186.4 83.43 186.83 84.53 187.23C85.63 187.64 86.74 188.01 87.87 188.35C88.99 188.68 90.12 188.99 91.26 189.27C92.4 189.54 93.55 189.79 94.7 190C99.41 190.86 103.92 192.54 108.04 194.98C112.15 197.42 115.8 200.57 118.81 204.28C121.83 208 124.15 212.22 125.69 216.75C127.22 221.28 127.94 226.05 127.8 230.83C127.71 234.54 125.66 233.25 124.1 232.68C117.51 230.27 112.03 225.92 106.16 222.25C104.88 222 104.24 222.19 105 223.61Z" />
			<path id="Layer" class="shp10" d="M134.05 146.61C138.5 153.2 144.9 157.61 151.54 162C129.82 168.62 106.14 154 101.33 131.3C100.15 125.71 98.87 120.1 98.81 114.3C98.75 108.5 98.98 103.03 99.41 97.3C100.56 103.64 105.02 106.7 110.31 108.94C111.39 109.4 112.47 109.82 113.57 110.22C114.67 110.61 115.78 110.98 116.9 111.31C118.02 111.65 119.15 111.95 120.29 112.22C121.43 112.49 122.57 112.73 123.72 112.94C128.43 113.8 132.94 115.48 137.06 117.92C141.17 120.36 144.82 123.51 147.83 127.22C150.84 130.94 153.17 135.16 154.71 139.69C156.24 144.22 156.96 148.99 156.82 153.77C156.73 157.48 154.68 156.19 153.12 155.62C146.53 153.21 141.05 148.86 135.12 145.19C133.9 145 133.26 145.19 134.05 146.61Z" />
			<path id="Layer" class="shp11" d="M52.38 60.35C55.64 66.35 60.74 70.63 66.04 74.91C47 78.77 28 64.39 25.73 44.6C25.18 39.73 24.55 34.85 24.97 29.94C25.39 25.03 26.05 20.34 26.89 15.48C27.35 20.98 30.89 23.96 35.22 26.3C36.1 26.78 36.99 27.24 37.9 27.67C38.8 28.1 39.72 28.51 40.65 28.89C41.58 29.27 42.52 29.62 43.46 29.95C44.41 30.28 45.37 30.58 46.33 30.86C50.27 31.98 53.99 33.78 57.3 36.2C60.61 38.62 63.46 41.6 65.73 45.02C67.99 48.44 69.63 52.23 70.57 56.22C71.5 60.21 71.72 64.33 71.21 68.4C70.83 71.56 69.21 70.29 67.9 69.67C62.48 67.08 58.16 62.91 53.46 59.3C52.39 58.93 51.83 59.07 52.38 60.35Z" />
			<path id="Layer" class="shp12" d="M83 446.43C89.25 456.43 98.5 463.34 108.11 470.21C75.53 478.84 41.2 455.93 35.29 421.94C33.84 413.58 32.29 405.19 32.47 396.66C32.68 388.3 33.34 379.95 34.29 371.45C35.65 380.92 42.09 385.71 49.82 389.32C51.39 390.06 52.98 390.75 54.59 391.41C56.2 392.06 57.83 392.66 59.47 393.23C61.11 393.79 62.77 394.3 64.44 394.78C66.11 395.25 67.8 395.67 69.49 396.05C76.43 397.57 83.04 400.32 89.01 404.16C94.98 408 100.23 412.87 104.5 418.55C108.76 424.22 111.99 430.61 114.02 437.42C116.05 444.22 116.85 451.33 116.39 458.42C116.05 463.91 113.09 461.88 110.79 460.95C101.15 457.02 93.25 450.27 84.79 444.5C82.86 444 81.9 444.27 83 446.43Z" />
		</g>
	</g>
</svg>