<svg xmlns="http://www.w3.org/2000/svg" width="4.366" height="4.36" viewBox="0 0 4.366 4.36">
  <g id="Group_223" data-name="Group 223" transform="translate(-336.998 -558.358)">
    <path id="Path_108" data-name="Path 108" d="M352.03,559.84q0,.618,0,1.236a.214.214,0,0,1-.233.235h-1.176a.214.214,0,0,1-.234-.236q0-1.239,0-2.478a.217.217,0,0,1,.237-.24h1.17a.216.216,0,0,1,.236.234Q352.03,559.216,352.03,559.84Z" transform="translate(-12.062)" fill="#fff"/>
    <path id="Path_109" data-name="Path 109" d="M370.207,567.311q0,.441,0,.882c0,.138-.063.2-.2.2h-.8a.173.173,0,0,1-.194-.2q0-.891,0-1.781a.173.173,0,0,1,.193-.2h.8a.173.173,0,0,1,.2.2Q370.208,566.864,370.207,567.311Z" transform="translate(-28.843 -7.08)" fill="#fff"/>
    <path id="Path_110" data-name="Path 110" d="M338.193,567.3q0,.444,0,.888c0,.136-.063.2-.2.2h-.8a.172.172,0,0,1-.194-.2q0-.891,0-1.781a.172.172,0,0,1,.194-.2H338a.171.171,0,0,1,.191.193Q338.194,566.857,338.193,567.3Z" transform="translate(0 -7.08)" fill="#fff"/>
    <path id="Path_111" data-name="Path 111" d="M344.73,589.609c.232,0,.464,0,.7,0,.046,0,.063-.013.055-.057a.1.1,0,0,1,0-.018c0-.088.025-.107.113-.088.023,0,.022.019.022.034,0,.2,0,.4,0,.6,0,.026-.007.037-.034.029s-.077.017-.095-.007-.006-.065-.007-.1c0-.072,0-.144,0-.216,0-.033-.007-.045-.042-.045q-.708,0-1.415,0c-.036,0-.047.012-.042.045a.143.143,0,0,1,0,.018c0,.109-.006.113-.115.1-.028,0-.018-.021-.02-.034,0-.041.018-.1-.01-.121s-.084-.008-.127-.008c-.4,0-.8,0-1.205,0-.047,0-.062.012-.059.059,0,.088,0,.176,0,.264,0,.033,0,.056-.044.042s-.071.019-.088-.006,0-.062,0-.094c0-.168,0-.336,0-.5,0-.064.03-.059.072-.059s.072,0,.069.056c-.005.106,0,.106.105.106.41,0,.819,0,1.229,0,.054,0,.073-.015.064-.066a.075.075,0,0,1,0-.012c0-.081.037-.107.116-.084.027.008.018.027.019.043,0,.118,0,.118.125.118Z" transform="translate(-4.783 -28.003)" fill="#fff"/>
    <path id="Path_112" data-name="Path 112" d="M355.97,596.044a.276.276,0,0,1-.281-.28.282.282,0,1,1,.563,0A.276.276,0,0,1,355.97,596.044Z" transform="translate(-16.839 -33.447)" fill="#fff"/>
    <path id="Path_113" data-name="Path 113" d="M372.868,598.04a.238.238,0,1,1,.237-.242A.237.237,0,0,1,372.868,598.04Z" transform="translate(-32.099 -35.322)" fill="#fff"/>
    <path id="Path_114" data-name="Path 114" d="M341.108,597.8a.237.237,0,0,1-.475.009.237.237,0,1,1,.475-.009Z" transform="translate(-3.275 -35.324)" fill="#fff"/>
    <path id="Path_115" data-name="Path 115" d="M356.485,579.85a.271.271,0,1,1-.542,0,.276.276,0,0,1,.273-.27A.273.273,0,0,1,356.485,579.85Z" transform="translate(-17.068 -19.116)" fill="#8dcfb4"/>
    <path id="Path_116" data-name="Path 116" d="M353.813,566.7h.443c.059,0,.1.027.091.069s-.043.065-.091.065h-.892c-.062,0-.094-.025-.09-.069s.043-.065.09-.064Z" transform="translate(-14.663 -7.519)" fill="#8dcfb4"/>
    <path id="Path_117" data-name="Path 117" d="M353.806,571.361h-.443c-.047,0-.085-.01-.09-.065s.03-.069.091-.07h.892c.048,0,.084.014.091.065s-.033.069-.092.069Z" transform="translate(-14.662 -11.593)" fill="#8dcfb4"/>
    <path id="Path_118" data-name="Path 118" d="M353.813,575.762c.148,0,.3,0,.443,0,.048,0,.084.012.091.064s-.033.071-.091.071h-.892c-.061,0-.094-.026-.09-.071s.043-.064.09-.064Z" transform="translate(-14.663 -15.679)" fill="#8dcfb4"/>
    <path id="Path_119" data-name="Path 119" d="M353.82,562.174h.425a.336.336,0,0,1,.048,0,.065.065,0,0,1,.062.069.064.064,0,0,1-.061.063.5.5,0,0,1-.072,0h-.862c-.047,0-.079-.021-.078-.07s.034-.064.077-.064Z" transform="translate(-14.67 -3.438)" fill="#8dcfb4"/>
    <path id="Path_120" data-name="Path 120" d="M372.877,580.3a.237.237,0,1,1-.236.238A.24.24,0,0,1,372.877,580.3Z" transform="translate(-32.112 -19.769)" fill="#8dcfb4"/>
    <path id="Path_121" data-name="Path 121" d="M372.036,569.44h-.245c-.048,0-.086-.016-.087-.068s.037-.069.085-.069h.491c.048,0,.086.018.085.07s-.041.068-.089.067Z" transform="translate(-31.266 -9.86)" fill="#8dcfb4"/>
    <path id="Path_122" data-name="Path 122" d="M372.031,577.273h-.251c-.045,0-.076-.019-.077-.064s.031-.069.079-.069h.5c.047,0,.08.018.08.067s-.035.066-.081.066Z" transform="translate(-31.266 -16.922)" fill="#8dcfb4"/>
    <path id="Path_123" data-name="Path 123" d="M372.042,573.224h.239c.046,0,.082.017.082.066s-.036.069-.085.069q-.245,0-.491,0c-.049,0-.086-.017-.086-.069s.041-.067.088-.066Z" transform="translate(-31.267 -13.393)" fill="#8dcfb4"/>
    <path id="Path_124" data-name="Path 124" d="M340.652,580.536a.235.235,0,1,1,.236.237A.237.237,0,0,1,340.652,580.536Z" transform="translate(-3.292 -19.767)" fill="#8dcfb4"/>
    <path id="Path_125" data-name="Path 125" d="M340.02,569.439h-.239c-.047,0-.086-.016-.086-.069s.038-.069.086-.069h.491c.045,0,.082.015.084.065s-.036.072-.083.072h-.251Z" transform="translate(-2.429 -9.859)" fill="#8dcfb4"/>
    <path id="Path_126" data-name="Path 126" d="M340.021,577.273h-.245c-.047,0-.079-.018-.078-.068s.032-.064.076-.064h.5c.046,0,.082.015.082.065s-.033.068-.08.068h-.257Z" transform="translate(-2.432 -16.922)" fill="#8dcfb4"/>
    <path id="Path_127" data-name="Path 127" d="M340.009,573.359h-.24c-.054,0-.089-.029-.085-.07s.04-.064.085-.064h.492c.044,0,.083.013.084.064s-.036.071-.084.071Z" transform="translate(-2.42 -13.394)" fill="#8dcfb4"/>
    <path id="Path_128" data-name="Path 128" d="M357.564,581.084a.133.133,0,0,1-.134.138.137.137,0,1,1,0-.273A.134.134,0,0,1,357.564,581.084Z" transform="translate(-18.28 -20.352)" fill="#fff"/>
    <path id="Path_129" data-name="Path 129" d="M374.205,581.761a.1.1,0,0,1-.1.1.1.1,0,0,1-.1-.1.1.1,0,0,1,.1-.1A.1.1,0,0,1,374.205,581.761Z" transform="translate(-33.338 -20.99)" fill="#fff"/>
    <path id="Path_130" data-name="Path 130" d="M342.1,581.662a.1.1,0,1,1-.111.093A.1.1,0,0,1,342.1,581.662Z" transform="translate(-4.5 -20.995)" fill="#f4f4f4"/>
  </g>
</svg>
