<svg xmlns="http://www.w3.org/2000/svg" viewBox="0 0 37.91 50.32"><defs><style>.cls-1{fill:#9acdcc;}.cls-2{fill:#fff;}</style></defs><g id="Layer_2" data-name="Layer 2"><g id="图层_1" data-name="图层 1"><g id="Group_241" data-name="Group 241"><path id="Path_79" data-name="Path 79" class="cls-1" d="M0,25.1V1.65C0,.29.28,0,1.62,0H28.68a2.18,2.18,0,0,1,1.7.72C32.66,3.06,35,5.36,37.3,7.66a1.87,1.87,0,0,1,.61,1.49V48.82c0,1.17-.33,1.5-1.49,1.5H1.55C.32,50.32,0,50,0,48.77Z"/><path id="Path_80" data-name="Path 80" class="cls-2" d="M2.12,25.17V3.1c0-.79.17-1,1-1q12.11.06,24.19,0c.7,0,.91.17.89.88-.05,1.8,0,3.61,0,5.42,0,1.06.29,1.35,1.36,1.36H35c.59,0,.76.17.76.76V47.54c0,.62-.21.73-.78.73H3c-.67,0-.84-.18-.84-.84V25.18Z"/><path id="Path_81" data-name="Path 81" class="cls-2" d="M34,7.65H30.69c-.34,0-.43-.15-.42-.46V3.75Z"/><path id="Path_82" data-name="Path 82" class="cls-1" d="M19,34H6.77A3.14,3.14,0,0,1,6,34a1,1,0,0,1-.95-1A1,1,0,0,1,6,32a3.74,3.74,0,0,1,.75,0h25c.63.06,1.11.33,1.11,1a1,1,0,0,1-1,1.1h-.65Z"/><path id="Path_83" data-name="Path 83" class="cls-1" d="M19,27.57H6.79a3.94,3.94,0,0,1-.84,0,1,1,0,0,1-.89-1,1,1,0,0,1,.87-1.1,2.49,2.49,0,0,1,.67,0H31.28a3.86,3.86,0,0,1,.68,0,1.05,1.05,0,0,1,.88,1.08.94.94,0,0,1-.86,1,4.15,4.15,0,0,1-.93.05Z"/><path id="Path_84" data-name="Path 84" class="cls-1" d="M18.87,40.48H6.52a1.69,1.69,0,0,1-1-.23,1,1,0,0,1-.41-1,1,1,0,0,1,.71-.86,4.18,4.18,0,0,1,1-.08H31.46c.92,0,1.4.41,1.38,1.11s-.5,1-1.38,1Z"/><path id="Path_85" data-name="Path 85" class="cls-1" d="M18.94,19H31.29A2.51,2.51,0,0,1,32,19a1,1,0,0,1,.88,1A1,1,0,0,1,32,21.06h0a10.15,10.15,0,0,1-1.35,0H6.68a3.82,3.82,0,0,1-.83-.06,1,1,0,0,1-.8-1,1,1,0,0,1,.86-1,3.22,3.22,0,0,1,.76,0Z"/></g></g></g></svg>