<svg xmlns="http://www.w3.org/2000/svg" viewBox="0 0 35.81 49.54"><defs><style>.cls-1{fill:#fdfefe;}.cls-2{fill:#9acdcc;}</style></defs><g id="Layer_2" data-name="Layer 2"><g id="图层_1" data-name="图层 1"><g id="Group_240" data-name="Group 240"><path id="Path_72" data-name="Path 72" class="cls-1" d="M34.08,0a3.84,3.84,0,0,1,1.7,3.65c-.05,10,0,20,0,30.05a11.51,11.51,0,0,1-.57,4,7.11,7.11,0,0,0,.17,5.63c.4.81,0,1-.65,1H17.2c-.52,0-1,0-1-.76S16.9,43,17.35,43c4.92,0,9.8,0,14.69,0,1.15,0,2,0,1.37-1.55-.37-.87.49-2.18-.54-2.69a6.76,6.76,0,0,0-2.76-.12H8.67c-2.46,0-3-.56-3-3,0-10.82,0-21.68,0-32.52A3.3,3.3,0,0,1,7.31,0Z"/><path id="Path_73" data-name="Path 73" class="cls-1" d="M0,23.47V4.82A4.61,4.61,0,0,1,1.86.8c.35-.25.75-.58,1.2-.37s.28.79.28,1.19V36.93a1.94,1.94,0,0,1-.94,2,2.32,2.32,0,0,0-.74,3.2,2.37,2.37,0,0,0,.56.62c.39.36,1.39.37,1,1.23-.27.6-1,.27-1.48.3a1.4,1.4,0,0,1-1.65-1A6,6,0,0,1,0,41.79Z"/><path id="Path_74" data-name="Path 74" class="cls-1" d="M10.3,41h3.63c.71,0,1,.28,1,1,0,2.2,0,4.39,0,6.59,0,.8-.23,1.19-1.06.8a8.22,8.22,0,0,0-7.27,0c-.74.33-1,0-1-.7,0-2.2,0-4.39,0-6.59,0-.79.32-1.07,1.08-1C7.89,41,9.1,41,10.3,41Z"/><path id="Path_75" data-name="Path 75" class="cls-2" d="M20.3,16.47c-2.69,0-5.41,0-8.09,0-1.36,0-2-.45-2-1.91.07-2.31,0-4.63,0-6.93,0-1.36.49-2,1.93-2q8.34,0,16.67,0c1.37,0,1.89.66,1.89,1.91v6.94c0,1.47-.72,2-2.15,2C25.81,16.45,23.06,16.47,20.3,16.47Z"/></g></g></g></svg>