<svg xmlns="http://www.w3.org/2000/svg" width="3.435" height="4.755" viewBox="0 0 3.435 4.755">
  <g id="Group_175" data-name="Group 175" transform="translate(-416.458 -99.112)">
    <path id="Path_72" data-name="Path 72" d="M435.918,99.112a.37.37,0,0,1,.164.35c-.005.962,0,1.923,0,2.885a1.121,1.121,0,0,1-.054.388.682.682,0,0,0,.016.54c.039.079.005.092-.062.092H434.3c-.05,0-.1,0-.093-.073s.065-.056.109-.056c.47,0,.941,0,1.411,0,.109,0,.195,0,.132-.149-.036-.084.049-.21-.052-.259a.657.657,0,0,0-.266-.011h-2.061c-.237,0-.293-.054-.294-.286,0-1.041,0-2.082,0-3.123a.318.318,0,0,1,.167-.3Z" transform="translate(-16.188)" fill="#fcfcfc"/>
    <path id="Path_73" data-name="Path 73" d="M416.459,102.436c0-.6,0-1.194,0-1.791a.441.441,0,0,1,.177-.386c.033-.024.072-.056.115-.035s.026.075.026.114c0,.486,0,.972,0,1.458q0,.967,0,1.933a.186.186,0,0,1-.09.194.223.223,0,0,0-.016.366c.037.035.133.035.1.118-.026.058-.094.026-.144.029a.134.134,0,0,1-.159-.1.634.634,0,0,1-.006-.142Q416.459,103.315,416.459,102.436Z" transform="translate(0 -1.07)" fill="#fcfcfc"/>
    <path id="Path_74" data-name="Path 74" d="M433.708,222.277c.116,0,.232,0,.348,0,.068,0,.094.027.093.094q0,.316,0,.633c0,.077-.022.114-.1.076a.79.79,0,0,0-.7,0c-.071.032-.094,0-.094-.067,0-.211,0-.422,0-.633,0-.076.031-.1.1-.1C433.476,222.28,433.592,222.277,433.708,222.277Z" transform="translate(-16.261 -119.227)" fill="#fcfcfc"/>
    <path id="Path_75" data-name="Path 75" d="M448.057,116.994c-.259,0-.518,0-.777,0-.131,0-.2-.043-.192-.184.006-.222,0-.444,0-.666,0-.13.046-.2.185-.2q.8,0,1.6,0c.132,0,.181.063.181.183,0,.222,0,.444,0,.666,0,.142-.069.2-.207.2C448.585,116.991,448.321,116.994,448.057,116.994Z" transform="translate(-29.65 -16.299)" fill="#8dcfb4"/>
  </g>
</svg>
