<svg version="1.2" baseProfile="tiny-ps" xmlns="http://www.w3.org/2000/svg" viewBox="0 0 1601 500" width="1601" height="500">
	<title>resourcePageBanner-svg</title>
	<style>
		tspan { white-space:pre }
		.shp0 { fill: #6d923e } 
		.shp1 { fill: #fdfefe } 
		.shp2 { fill: #41622f } 
		.shp3 { fill: #9cc25e } 
	</style>
	<g id="图层_2">
		<g id="Layer_4">
			<path id="Layer" class="shp0" d="M0 0L1600 0L1600 500L0 500L0 0Z" />
			<g id="Group_240">
				<path id="Path_72" class="shp1" d="M1578.24 0C1592.65 9.51 1602 26 1600 43.11C1599.36 162.3 1599.94 192.76 1600 311.96C1600.59 328.24 1596.58 344.85 1591.53 360.34C1582.93 381.97 1589.02 405.9 1598.85 427C1603.66 436.72 1594.11 438.65 1585.73 438.65L1493.51 438.65C1487.24 438.65 1481.21 438.65 1481.8 429.57C1482.39 420.49 1489.94 422.57 1495.27 422.57C1553.84 422.57 1495.76 422.22 1554.04 422.57C1567.63 422.57 1578.17 422.57 1570.33 404.12C1565.88 393.75 1576.19 378.12 1563.89 372.02C1561.21 371.35 1558.49 370.81 1555.76 370.41C1553.02 370.02 1550.26 369.76 1547.5 369.64C1544.74 369.52 1541.97 369.55 1539.21 369.71C1536.45 369.87 1533.7 370.18 1530.97 370.62L1392 370.62C1362.71 370.62 1355.62 363.94 1355.62 335.18C1355.62 206.32 1355.62 165.91 1355.16 36.81C1354.96 33.1 1355.29 29.38 1356.13 25.76C1356.97 22.14 1358.32 18.66 1360.14 15.42C1361.95 12.17 1364.22 9.21 1366.86 6.6C1369.51 3.99 1372.51 1.77 1375.78 0L1578.24 0Z" />
				<path id="Path_73" class="shp1" d="M1289 230.69L1289 44.5C1287.64 28.86 1295.9 13.72 1310.9 4.36C1315 1.85 1319.9 -1.44 1325.19 0.68C1330.48 2.8 1328.47 8.49 1328.47 12.52L1328.47 365.06C1330.19 373.06 1325.72 381.17 1317.28 385.25C1304.36 392.02 1300.42 406.25 1308.49 417.13C1308.95 417.74 1309.44 418.33 1309.96 418.9C1310.47 419.47 1311.02 420.01 1311.58 420.53C1312.14 421.05 1312.73 421.55 1313.34 422.01C1313.95 422.48 1314.58 422.92 1315.23 423.33C1319.8 426.96 1331.75 427.01 1326.95 435.61C1323.79 441.61 1315.23 438.36 1309.38 438.61C1300.55 440.21 1291.82 435.61 1289.7 428.25C1289.47 427.04 1289.29 425.82 1289.14 424.59C1288.99 423.37 1288.89 422.14 1288.83 420.91C1288.76 419.67 1288.74 418.44 1288.76 417.21C1288.78 415.97 1288.84 414.74 1288.94 413.51C1288.98 352.59 1289 291.65 1289 230.69Z" />
				<path id="Path_74" class="shp2" d="M1411.39 387.41L1454.56 387.41C1463.05 387.41 1466.28 390.69 1466.28 399.12C1466.04 425.29 1466.04 451.45 1466.28 477.61C1466.28 487.16 1463.58 491.78 1453.74 487.1C1447.05 483.77 1440 481.22 1432.72 479.49C1425.45 477.77 1418 476.88 1410.53 476.85C1403.05 476.82 1395.6 477.65 1388.31 479.31C1381.02 480.98 1373.95 483.47 1367.23 486.75C1358.39 490.75 1355.52 487.28 1355.52 478.43C1355.52 452.25 1355.81 426.12 1355.52 399.94C1355.52 390.51 1359.32 387.23 1368.34 387.53C1382.63 387.76 1397 387.41 1411.39 387.41Z" />
				<path id="Path_75" class="shp0" d="M1530.41 107.3C1498.32 107.3 1465.98 106.89 1434.12 107.3C1417.84 107.3 1409.81 101.92 1410.28 84.52C1411.04 57.05 1410.8 51.66 1410.28 24.19C1410.28 8.08 1416.14 -0.12 1433.18 0C1499.37 0.35 1511.36 0.35 1577.51 0C1593.85 0 1599.94 7.79 1600 22.73C1600 50.26 1600 55.58 1600 83.05C1600 100.63 1591.39 107.54 1574.35 107.3C1541.78 107 1563.27 107.3 1530.41 107.3Z" />
			</g>
			<path id="Layer" class="shp3" d="M1423 332.93C1430.47 341.75 1440.42 347.14 1450.7 352.43C1420.34 365.43 1383.83 348.05 1373.3 315.94C1370.72 308.05 1367.99 300.14 1367 291.84C1366 283.71 1365.48 275.52 1365.2 267.15C1367.85 276.15 1374.77 279.87 1382.78 282.28C1384.41 282.77 1386.05 283.22 1387.7 283.62C1389.35 284.03 1391.01 284.38 1392.68 284.7C1394.35 285.01 1396.03 285.27 1397.71 285.5C1399.4 285.72 1401.09 285.89 1402.78 286.02C1409.71 286.52 1416.5 288.25 1422.83 291.13C1429.16 294.01 1434.92 297.99 1439.86 302.89C1444.79 307.79 1448.81 313.52 1451.74 319.83C1454.67 326.13 1456.45 332.91 1457 339.84C1457.45 345.21 1454.29 343.66 1451.94 343.08C1442.04 340.64 1433.43 335.2 1424.37 330.82C1422.47 330.57 1421.59 331 1423 332.93Z" />
		</g>
	</g>
</svg>