<svg xmlns="http://www.w3.org/2000/svg" width="3.117" height="3.505" viewBox="0 0 3.117 3.505">
  <g id="Group_238" data-name="Group 238" transform="translate(394.317 -509.938)">
    <path id="Path_138" data-name="Path 138" d="M-392.909,513.443a.708.708,0,0,1-.132-.067.273.273,0,0,1-.1-.3.274.274,0,0,1,.233-.209.274.274,0,0,1,.3.135.064.064,0,0,0,.081.036,1.357,1.357,0,0,0,.744-.391,1.494,1.494,0,0,0,.246-.348c0-.006.005-.012.007-.017a1.044,1.044,0,0,1-.136-.01.38.38,0,0,1-.313-.366,3.837,3.837,0,0,1,0-.452.38.38,0,0,1,.47-.332l.056.012a1.29,1.29,0,0,0-.319-.568,1.318,1.318,0,0,0-.848-.42,1.351,1.351,0,0,0-1.451.986l.047-.01a.386.386,0,0,1,.481.365c0,.139,0,.279,0,.418a.388.388,0,0,1-.379.375.383.383,0,0,1-.393-.348c-.01-.169-.006-.34,0-.51a1.38,1.38,0,0,1,.151-.605,1.536,1.536,0,0,1,1.132-.851,1.554,1.554,0,0,1,1.795,1.216,1.837,1.837,0,0,1,.031.305c.005.131,0,.263,0,.394a.391.391,0,0,1-.015.114,2.939,2.939,0,0,1-.117.327,1.529,1.529,0,0,1-1.152.9c-.054.011-.1.021-.123.08a.252.252,0,0,1-.178.133l-.018.007Zm-1.207-1.751h-.006c0,.066,0,.132,0,.2a.2.2,0,0,0,.184.19.186.186,0,0,0,.2-.171c.006-.146.006-.292,0-.437a.181.181,0,0,0-.18-.168.181.181,0,0,0-.2.153A1.924,1.924,0,0,0-394.115,511.692Zm2.336,0h-.006c0,.066,0,.132,0,.2a.2.2,0,0,0,.183.191.187.187,0,0,0,.2-.173c.006-.145.005-.29,0-.434a.184.184,0,0,0-.179-.17.183.183,0,0,0-.2.152A1.865,1.865,0,0,0-391.78,511.69Z" transform="translate(0 0)" fill="#fff"/>
    <path id="Path_139" data-name="Path 139" d="M-383.977,582.428a1.918,1.918,0,0,1,0-.235.181.181,0,0,1,.2-.153.181.181,0,0,1,.18.168c.006.146.007.292,0,.437a.186.186,0,0,1-.2.171.2.2,0,0,1-.184-.19c0-.066,0-.132,0-.2Z" transform="translate(-10.138 -70.736)" fill="#8dcfb4"/>
    <path id="Path_140" data-name="Path 140" d="M-260.654,582.373a1.865,1.865,0,0,1,0-.235.184.184,0,0,1,.2-.152.184.184,0,0,1,.179.17c.006.144.006.29,0,.434a.187.187,0,0,1-.2.173.2.2,0,0,1-.183-.191c0-.066,0-.132,0-.2Z" transform="translate(-131.125 -70.682)" fill="#8dcfb4"/>
  </g>
</svg>
